<mxfile host="app.diagrams.net" modified="2023-12-13T08:34:25.541Z" agent="Mozilla/5.0 (Windows NT 10.0; Win64; x64) AppleWebKit/537.36 (KHTML, like Gecko) Chrome/120.0.0.0 Safari/537.36" etag="cuwAtLBPnZbPjdqRJMXn" version="22.1.8" type="device">
  <diagram id="C5RBs43oDa-KdzZeNtuy" name="Page-1">
    <mxGraphModel dx="4132" dy="2082" grid="1" gridSize="10" guides="1" tooltips="1" connect="1" arrows="1" fold="1" page="1" pageScale="1" pageWidth="827" pageHeight="1169" math="0" shadow="0">
      <root>
        <mxCell id="WIyWlLk6GJQsqaUBKTNV-0" />
        <mxCell id="WIyWlLk6GJQsqaUBKTNV-1" parent="WIyWlLk6GJQsqaUBKTNV-0" />
        <mxCell id="zkfFHV4jXpPFQw0GAbJ--0" value="AddWordController" style="swimlane;fontStyle=0;align=center;verticalAlign=top;childLayout=stackLayout;horizontal=1;startSize=26;horizontalStack=0;resizeParent=1;resizeLast=0;collapsible=1;marginBottom=0;rounded=0;shadow=0;strokeWidth=1;" parent="WIyWlLk6GJQsqaUBKTNV-1" vertex="1">
          <mxGeometry x="-1440" y="960" width="220" height="170" as="geometry">
            <mxRectangle x="230" y="140" width="160" height="26" as="alternateBounds" />
          </mxGeometry>
        </mxCell>
        <mxCell id="zkfFHV4jXpPFQw0GAbJ--1" value="- addWord_target : TextField" style="text;align=left;verticalAlign=top;spacingLeft=4;spacingRight=4;overflow=hidden;rotatable=0;points=[[0,0.5],[1,0.5]];portConstraint=eastwest;" parent="zkfFHV4jXpPFQw0GAbJ--0" vertex="1">
          <mxGeometry y="26" width="220" height="26" as="geometry" />
        </mxCell>
        <mxCell id="zkfFHV4jXpPFQw0GAbJ--2" value="- addWord_pronounce : TextField" style="text;align=left;verticalAlign=top;spacingLeft=4;spacingRight=4;overflow=hidden;rotatable=0;points=[[0,0.5],[1,0.5]];portConstraint=eastwest;rounded=0;shadow=0;html=0;" parent="zkfFHV4jXpPFQw0GAbJ--0" vertex="1">
          <mxGeometry y="52" width="220" height="26" as="geometry" />
        </mxCell>
        <mxCell id="zkfFHV4jXpPFQw0GAbJ--3" value="- addWord_explain : TextArea" style="text;align=left;verticalAlign=top;spacingLeft=4;spacingRight=4;overflow=hidden;rotatable=0;points=[[0,0.5],[1,0.5]];portConstraint=eastwest;rounded=0;shadow=0;html=0;" parent="zkfFHV4jXpPFQw0GAbJ--0" vertex="1">
          <mxGeometry y="78" width="220" height="26" as="geometry" />
        </mxCell>
        <mxCell id="MWqNm4K_UuyTtYYoWFC4-3" value="&amp;nbsp;- dictionary : Dictionary" style="text;html=1;align=left;verticalAlign=middle;resizable=0;points=[];autosize=1;strokeColor=none;fillColor=none;" parent="zkfFHV4jXpPFQw0GAbJ--0" vertex="1">
          <mxGeometry y="104" width="220" height="30" as="geometry" />
        </mxCell>
        <mxCell id="MWqNm4K_UuyTtYYoWFC4-5" value="" style="endArrow=none;html=1;rounded=0;" parent="zkfFHV4jXpPFQw0GAbJ--0" edge="1">
          <mxGeometry width="50" height="50" relative="1" as="geometry">
            <mxPoint y="140" as="sourcePoint" />
            <mxPoint x="220" y="140" as="targetPoint" />
          </mxGeometry>
        </mxCell>
        <mxCell id="MWqNm4K_UuyTtYYoWFC4-10" value="&amp;nbsp;- addWord ( ActionEvent ) : void" style="text;html=1;strokeColor=none;fillColor=none;align=left;verticalAlign=middle;whiteSpace=wrap;rounded=0;" parent="zkfFHV4jXpPFQw0GAbJ--0" vertex="1">
          <mxGeometry y="134" width="220" height="30" as="geometry" />
        </mxCell>
        <mxCell id="zkfFHV4jXpPFQw0GAbJ--6" value="DataBaseConnection" style="swimlane;fontStyle=0;align=center;verticalAlign=top;childLayout=stackLayout;horizontal=1;startSize=26;horizontalStack=0;resizeParent=1;resizeLast=0;collapsible=1;marginBottom=0;rounded=0;shadow=0;strokeWidth=1;" parent="WIyWlLk6GJQsqaUBKTNV-1" vertex="1">
          <mxGeometry x="450" y="-240" width="170" height="90" as="geometry">
            <mxRectangle x="130" y="380" width="160" height="26" as="alternateBounds" />
          </mxGeometry>
        </mxCell>
        <mxCell id="zkfFHV4jXpPFQw0GAbJ--7" value="- connection : Connection" style="text;align=left;verticalAlign=top;spacingLeft=4;spacingRight=4;overflow=hidden;rotatable=0;points=[[0,0.5],[1,0.5]];portConstraint=eastwest;" parent="zkfFHV4jXpPFQw0GAbJ--6" vertex="1">
          <mxGeometry y="26" width="170" height="26" as="geometry" />
        </mxCell>
        <mxCell id="zkfFHV4jXpPFQw0GAbJ--9" value="" style="line;html=1;strokeWidth=1;align=left;verticalAlign=middle;spacingTop=-1;spacingLeft=3;spacingRight=3;rotatable=0;labelPosition=right;points=[];portConstraint=eastwest;" parent="zkfFHV4jXpPFQw0GAbJ--6" vertex="1">
          <mxGeometry y="52" width="170" height="8" as="geometry" />
        </mxCell>
        <mxCell id="zkfFHV4jXpPFQw0GAbJ--11" value="+  getConnection : Connection" style="text;align=left;verticalAlign=top;spacingLeft=4;spacingRight=4;overflow=hidden;rotatable=0;points=[[0,0.5],[1,0.5]];portConstraint=eastwest;" parent="zkfFHV4jXpPFQw0GAbJ--6" vertex="1">
          <mxGeometry y="60" width="170" height="26" as="geometry" />
        </mxCell>
        <mxCell id="zkfFHV4jXpPFQw0GAbJ--13" value="FailController" style="swimlane;fontStyle=0;align=center;verticalAlign=top;childLayout=stackLayout;horizontal=1;startSize=26;horizontalStack=0;resizeParent=1;resizeLast=0;collapsible=1;marginBottom=0;rounded=0;shadow=0;strokeWidth=1;" parent="WIyWlLk6GJQsqaUBKTNV-1" vertex="1">
          <mxGeometry x="-520" y="260" width="250" height="150" as="geometry">
            <mxRectangle x="340" y="380" width="170" height="26" as="alternateBounds" />
          </mxGeometry>
        </mxCell>
        <mxCell id="zkfFHV4jXpPFQw0GAbJ--14" value="- diemCao1 : Text" style="text;align=left;verticalAlign=top;spacingLeft=4;spacingRight=4;overflow=hidden;rotatable=0;points=[[0,0.5],[1,0.5]];portConstraint=eastwest;" parent="zkfFHV4jXpPFQw0GAbJ--13" vertex="1">
          <mxGeometry y="26" width="250" height="26" as="geometry" />
        </mxCell>
        <mxCell id="MWqNm4K_UuyTtYYoWFC4-12" value="&amp;nbsp;- gameAnchorPane :&amp;nbsp;AnchorPane" style="text;html=1;strokeColor=none;fillColor=none;align=left;verticalAlign=middle;whiteSpace=wrap;rounded=0;" parent="zkfFHV4jXpPFQw0GAbJ--13" vertex="1">
          <mxGeometry y="52" width="250" height="30" as="geometry" />
        </mxCell>
        <mxCell id="MWqNm4K_UuyTtYYoWFC4-13" value="" style="endArrow=none;html=1;rounded=0;exitX=0;exitY=1;exitDx=0;exitDy=0;entryX=1;entryY=1;entryDx=0;entryDy=0;" parent="zkfFHV4jXpPFQw0GAbJ--13" source="MWqNm4K_UuyTtYYoWFC4-12" target="MWqNm4K_UuyTtYYoWFC4-12" edge="1">
          <mxGeometry width="50" height="50" relative="1" as="geometry">
            <mxPoint x="60" y="-30" as="sourcePoint" />
            <mxPoint x="110" y="-80" as="targetPoint" />
          </mxGeometry>
        </mxCell>
        <mxCell id="MWqNm4K_UuyTtYYoWFC4-14" value="&amp;nbsp;+ returnMenu( ActionEvent ) : void" style="text;html=1;strokeColor=none;fillColor=none;align=left;verticalAlign=middle;whiteSpace=wrap;rounded=0;" parent="zkfFHV4jXpPFQw0GAbJ--13" vertex="1">
          <mxGeometry y="82" width="250" height="30" as="geometry" />
        </mxCell>
        <mxCell id="MWqNm4K_UuyTtYYoWFC4-15" value="&amp;nbsp;+ void initialize(URL , ResourceBundle ) : void" style="text;html=1;strokeColor=none;fillColor=none;align=left;verticalAlign=middle;whiteSpace=wrap;rounded=0;" parent="zkfFHV4jXpPFQw0GAbJ--13" vertex="1">
          <mxGeometry y="112" width="250" height="30" as="geometry" />
        </mxCell>
        <mxCell id="zkfFHV4jXpPFQw0GAbJ--17" value="GameController" style="swimlane;fontStyle=0;align=center;verticalAlign=top;childLayout=stackLayout;horizontal=1;startSize=26;horizontalStack=0;resizeParent=1;resizeLast=0;collapsible=1;marginBottom=0;rounded=0;shadow=0;strokeWidth=1;" parent="WIyWlLk6GJQsqaUBKTNV-1" vertex="1">
          <mxGeometry x="1190" y="-70" width="280" height="840" as="geometry">
            <mxRectangle x="550" y="140" width="160" height="26" as="alternateBounds" />
          </mxGeometry>
        </mxCell>
        <mxCell id="zkfFHV4jXpPFQw0GAbJ--18" value="- gameOverImage : ImageView " style="text;align=left;verticalAlign=top;spacingLeft=4;spacingRight=4;overflow=hidden;rotatable=0;points=[[0,0.5],[1,0.5]];portConstraint=eastwest;" parent="zkfFHV4jXpPFQw0GAbJ--17" vertex="1">
          <mxGeometry y="26" width="280" height="26" as="geometry" />
        </mxCell>
        <mxCell id="zkfFHV4jXpPFQw0GAbJ--19" value="-  heart : ArrayList&lt;ImageView&gt;" style="text;align=left;verticalAlign=top;spacingLeft=4;spacingRight=4;overflow=hidden;rotatable=0;points=[[0,0.5],[1,0.5]];portConstraint=eastwest;rounded=0;shadow=0;html=0;" parent="zkfFHV4jXpPFQw0GAbJ--17" vertex="1">
          <mxGeometry y="52" width="280" height="26" as="geometry" />
        </mxCell>
        <mxCell id="zkfFHV4jXpPFQw0GAbJ--20" value="- heart1 : ImageView" style="text;align=left;verticalAlign=top;spacingLeft=4;spacingRight=4;overflow=hidden;rotatable=0;points=[[0,0.5],[1,0.5]];portConstraint=eastwest;rounded=0;shadow=0;html=0;" parent="zkfFHV4jXpPFQw0GAbJ--17" vertex="1">
          <mxGeometry y="78" width="280" height="26" as="geometry" />
        </mxCell>
        <mxCell id="MWqNm4K_UuyTtYYoWFC4-16" value="- heart2 : ImageView" style="text;align=left;verticalAlign=top;spacingLeft=4;spacingRight=4;overflow=hidden;rotatable=0;points=[[0,0.5],[1,0.5]];portConstraint=eastwest;rounded=0;shadow=0;html=0;" parent="zkfFHV4jXpPFQw0GAbJ--17" vertex="1">
          <mxGeometry y="104" width="280" height="26" as="geometry" />
        </mxCell>
        <mxCell id="MWqNm4K_UuyTtYYoWFC4-17" value="- heart3 : ImageView" style="text;align=left;verticalAlign=top;spacingLeft=4;spacingRight=4;overflow=hidden;rotatable=0;points=[[0,0.5],[1,0.5]];portConstraint=eastwest;rounded=0;shadow=0;html=0;" parent="zkfFHV4jXpPFQw0GAbJ--17" vertex="1">
          <mxGeometry y="130" width="280" height="26" as="geometry" />
        </mxCell>
        <mxCell id="MWqNm4K_UuyTtYYoWFC4-18" value="- heart4 : ImageView" style="text;align=left;verticalAlign=top;spacingLeft=4;spacingRight=4;overflow=hidden;rotatable=0;points=[[0,0.5],[1,0.5]];portConstraint=eastwest;rounded=0;shadow=0;html=0;" parent="zkfFHV4jXpPFQw0GAbJ--17" vertex="1">
          <mxGeometry y="156" width="280" height="26" as="geometry" />
        </mxCell>
        <mxCell id="MWqNm4K_UuyTtYYoWFC4-19" value="- heart5 : ImageView" style="text;align=left;verticalAlign=top;spacingLeft=4;spacingRight=4;overflow=hidden;rotatable=0;points=[[0,0.5],[1,0.5]];portConstraint=eastwest;rounded=0;shadow=0;html=0;" parent="zkfFHV4jXpPFQw0GAbJ--17" vertex="1">
          <mxGeometry y="182" width="280" height="26" as="geometry" />
        </mxCell>
        <mxCell id="MWqNm4K_UuyTtYYoWFC4-20" value="- heart6 : ImageView" style="text;align=left;verticalAlign=top;spacingLeft=4;spacingRight=4;overflow=hidden;rotatable=0;points=[[0,0.5],[1,0.5]];portConstraint=eastwest;rounded=0;shadow=0;html=0;" parent="zkfFHV4jXpPFQw0GAbJ--17" vertex="1">
          <mxGeometry y="208" width="280" height="26" as="geometry" />
        </mxCell>
        <mxCell id="MWqNm4K_UuyTtYYoWFC4-21" value="- maxMark : int" style="text;align=left;verticalAlign=top;spacingLeft=4;spacingRight=4;overflow=hidden;rotatable=0;points=[[0,0.5],[1,0.5]];portConstraint=eastwest;rounded=0;shadow=0;html=0;" parent="zkfFHV4jXpPFQw0GAbJ--17" vertex="1">
          <mxGeometry y="234" width="280" height="26" as="geometry" />
        </mxCell>
        <mxCell id="MWqNm4K_UuyTtYYoWFC4-22" value="+ textList : ArrayList&lt;Button&gt;" style="text;align=left;verticalAlign=top;spacingLeft=4;spacingRight=4;overflow=hidden;rotatable=0;points=[[0,0.5],[1,0.5]];portConstraint=eastwest;rounded=0;shadow=0;html=0;" parent="zkfFHV4jXpPFQw0GAbJ--17" vertex="1">
          <mxGeometry y="260" width="280" height="26" as="geometry" />
        </mxCell>
        <mxCell id="MWqNm4K_UuyTtYYoWFC4-23" value="- timerLabel : Label" style="text;align=left;verticalAlign=top;spacingLeft=4;spacingRight=4;overflow=hidden;rotatable=0;points=[[0,0.5],[1,0.5]];portConstraint=eastwest;rounded=0;shadow=0;html=0;" parent="zkfFHV4jXpPFQw0GAbJ--17" vertex="1">
          <mxGeometry y="286" width="280" height="26" as="geometry" />
        </mxCell>
        <mxCell id="MWqNm4K_UuyTtYYoWFC4-24" value="- dapan : Text" style="text;align=left;verticalAlign=top;spacingLeft=4;spacingRight=4;overflow=hidden;rotatable=0;points=[[0,0.5],[1,0.5]];portConstraint=eastwest;rounded=0;shadow=0;html=0;" parent="zkfFHV4jXpPFQw0GAbJ--17" vertex="1">
          <mxGeometry y="312" width="280" height="26" as="geometry" />
        </mxCell>
        <mxCell id="MWqNm4K_UuyTtYYoWFC4-25" value="- gameAnchorPane : AnchorPane" style="text;align=left;verticalAlign=top;spacingLeft=4;spacingRight=4;overflow=hidden;rotatable=0;points=[[0,0.5],[1,0.5]];portConstraint=eastwest;rounded=0;shadow=0;html=0;" parent="zkfFHV4jXpPFQw0GAbJ--17" vertex="1">
          <mxGeometry y="338" width="280" height="26" as="geometry" />
        </mxCell>
        <mxCell id="MWqNm4K_UuyTtYYoWFC4-29" value="- imagePaths : String[ ]" style="text;align=left;verticalAlign=top;spacingLeft=4;spacingRight=4;overflow=hidden;rotatable=0;points=[[0,0.5],[1,0.5]];portConstraint=eastwest;rounded=0;shadow=0;html=0;" parent="zkfFHV4jXpPFQw0GAbJ--17" vertex="1">
          <mxGeometry y="364" width="280" height="26" as="geometry" />
        </mxCell>
        <mxCell id="MWqNm4K_UuyTtYYoWFC4-30" value="- currentImageIndex : int " style="text;align=left;verticalAlign=top;spacingLeft=4;spacingRight=4;overflow=hidden;rotatable=0;points=[[0,0.5],[1,0.5]];portConstraint=eastwest;rounded=0;shadow=0;html=0;" parent="zkfFHV4jXpPFQw0GAbJ--17" vertex="1">
          <mxGeometry y="390" width="280" height="26" as="geometry" />
        </mxCell>
        <mxCell id="MWqNm4K_UuyTtYYoWFC4-31" value="-  answer : boolean" style="text;align=left;verticalAlign=top;spacingLeft=4;spacingRight=4;overflow=hidden;rotatable=0;points=[[0,0.5],[1,0.5]];portConstraint=eastwest;rounded=0;shadow=0;html=0;" parent="zkfFHV4jXpPFQw0GAbJ--17" vertex="1">
          <mxGeometry y="416" width="280" height="26" as="geometry" />
        </mxCell>
        <mxCell id="KPDPt_HukclP0nCcabdX-0" value="-  gameOverShowed : boolean" style="text;align=left;verticalAlign=top;spacingLeft=4;spacingRight=4;overflow=hidden;rotatable=0;points=[[0,0.5],[1,0.5]];portConstraint=eastwest;rounded=0;shadow=0;html=0;" parent="zkfFHV4jXpPFQw0GAbJ--17" vertex="1">
          <mxGeometry y="442" width="280" height="26" as="geometry" />
        </mxCell>
        <mxCell id="KPDPt_HukclP0nCcabdX-1" value="-  winGameShowed : boolean" style="text;align=left;verticalAlign=top;spacingLeft=4;spacingRight=4;overflow=hidden;rotatable=0;points=[[0,0.5],[1,0.5]];portConstraint=eastwest;rounded=0;shadow=0;html=0;" parent="zkfFHV4jXpPFQw0GAbJ--17" vertex="1">
          <mxGeometry y="468" width="280" height="26" as="geometry" />
        </mxCell>
        <mxCell id="KPDPt_HukclP0nCcabdX-2" value="" style="endArrow=none;html=1;rounded=0;entryX=1.002;entryY=1.12;entryDx=0;entryDy=0;entryPerimeter=0;" parent="zkfFHV4jXpPFQw0GAbJ--17" target="KPDPt_HukclP0nCcabdX-1" edge="1">
          <mxGeometry width="50" height="50" relative="1" as="geometry">
            <mxPoint y="497" as="sourcePoint" />
            <mxPoint x="-200" y="340" as="targetPoint" />
          </mxGeometry>
        </mxCell>
        <mxCell id="KPDPt_HukclP0nCcabdX-3" value="- menuGame( ActionEvent ) : void" style="text;align=left;verticalAlign=top;spacingLeft=4;spacingRight=4;overflow=hidden;rotatable=0;points=[[0,0.5],[1,0.5]];portConstraint=eastwest;rounded=0;shadow=0;html=0;" parent="zkfFHV4jXpPFQw0GAbJ--17" vertex="1">
          <mxGeometry y="494" width="280" height="26" as="geometry" />
        </mxCell>
        <mxCell id="KPDPt_HukclP0nCcabdX-4" value="- initialize(URL , ResourceBundle ) : void " style="text;align=left;verticalAlign=top;spacingLeft=4;spacingRight=4;overflow=hidden;rotatable=0;points=[[0,0.5],[1,0.5]];portConstraint=eastwest;rounded=0;shadow=0;html=0;" parent="zkfFHV4jXpPFQw0GAbJ--17" vertex="1">
          <mxGeometry y="520" width="280" height="26" as="geometry" />
        </mxCell>
        <mxCell id="KPDPt_HukclP0nCcabdX-5" value="- startTimer() : void" style="text;align=left;verticalAlign=top;spacingLeft=4;spacingRight=4;overflow=hidden;rotatable=0;points=[[0,0.5],[1,0.5]];portConstraint=eastwest;rounded=0;shadow=0;html=0;" parent="zkfFHV4jXpPFQw0GAbJ--17" vertex="1">
          <mxGeometry y="546" width="280" height="26" as="geometry" />
        </mxCell>
        <mxCell id="KPDPt_HukclP0nCcabdX-6" value="- updateTimer(ActionEvent) : void" style="text;align=left;verticalAlign=top;spacingLeft=4;spacingRight=4;overflow=hidden;rotatable=0;points=[[0,0.5],[1,0.5]];portConstraint=eastwest;rounded=0;shadow=0;html=0;" parent="zkfFHV4jXpPFQw0GAbJ--17" vertex="1">
          <mxGeometry y="572" width="280" height="26" as="geometry" />
        </mxCell>
        <mxCell id="KPDPt_HukclP0nCcabdX-7" value="- handleGameTimerFinished(ActionEvent) : void" style="text;align=left;verticalAlign=top;spacingLeft=4;spacingRight=4;overflow=hidden;rotatable=0;points=[[0,0.5],[1,0.5]];portConstraint=eastwest;rounded=0;shadow=0;html=0;" parent="zkfFHV4jXpPFQw0GAbJ--17" vertex="1">
          <mxGeometry y="598" width="280" height="26" as="geometry" />
        </mxCell>
        <mxCell id="KPDPt_HukclP0nCcabdX-8" value="- setDiem() : void" style="text;align=left;verticalAlign=top;spacingLeft=4;spacingRight=4;overflow=hidden;rotatable=0;points=[[0,0.5],[1,0.5]];portConstraint=eastwest;rounded=0;shadow=0;html=0;" parent="zkfFHV4jXpPFQw0GAbJ--17" vertex="1">
          <mxGeometry y="624" width="280" height="26" as="geometry" />
        </mxCell>
        <mxCell id="KPDPt_HukclP0nCcabdX-9" value="- getTextInPut1() : void" style="text;align=left;verticalAlign=top;spacingLeft=4;spacingRight=4;overflow=hidden;rotatable=0;points=[[0,0.5],[1,0.5]];portConstraint=eastwest;rounded=0;shadow=0;html=0;" parent="zkfFHV4jXpPFQw0GAbJ--17" vertex="1">
          <mxGeometry y="650" width="280" height="26" as="geometry" />
        </mxCell>
        <mxCell id="KPDPt_HukclP0nCcabdX-10" value="- getTextInPut2() : void" style="text;align=left;verticalAlign=top;spacingLeft=4;spacingRight=4;overflow=hidden;rotatable=0;points=[[0,0.5],[1,0.5]];portConstraint=eastwest;rounded=0;shadow=0;html=0;" parent="zkfFHV4jXpPFQw0GAbJ--17" vertex="1">
          <mxGeometry y="676" width="280" height="26" as="geometry" />
        </mxCell>
        <mxCell id="KPDPt_HukclP0nCcabdX-12" value="- getTextInPut3() : void" style="text;align=left;verticalAlign=top;spacingLeft=4;spacingRight=4;overflow=hidden;rotatable=0;points=[[0,0.5],[1,0.5]];portConstraint=eastwest;rounded=0;shadow=0;html=0;" parent="zkfFHV4jXpPFQw0GAbJ--17" vertex="1">
          <mxGeometry y="702" width="280" height="26" as="geometry" />
        </mxCell>
        <mxCell id="KPDPt_HukclP0nCcabdX-13" value="- getTextInPut4() : void" style="text;align=left;verticalAlign=top;spacingLeft=4;spacingRight=4;overflow=hidden;rotatable=0;points=[[0,0.5],[1,0.5]];portConstraint=eastwest;rounded=0;shadow=0;html=0;" parent="zkfFHV4jXpPFQw0GAbJ--17" vertex="1">
          <mxGeometry y="728" width="280" height="26" as="geometry" />
        </mxCell>
        <mxCell id="KPDPt_HukclP0nCcabdX-14" value="- showGameOverScreen() : void" style="text;align=left;verticalAlign=top;spacingLeft=4;spacingRight=4;overflow=hidden;rotatable=0;points=[[0,0.5],[1,0.5]];portConstraint=eastwest;rounded=0;shadow=0;html=0;" parent="zkfFHV4jXpPFQw0GAbJ--17" vertex="1">
          <mxGeometry y="754" width="280" height="26" as="geometry" />
        </mxCell>
        <mxCell id="KPDPt_HukclP0nCcabdX-15" value="- getmaxMark() : int" style="text;align=left;verticalAlign=top;spacingLeft=4;spacingRight=4;overflow=hidden;rotatable=0;points=[[0,0.5],[1,0.5]];portConstraint=eastwest;rounded=0;shadow=0;html=0;" parent="zkfFHV4jXpPFQw0GAbJ--17" vertex="1">
          <mxGeometry y="780" width="280" height="26" as="geometry" />
        </mxCell>
        <mxCell id="KPDPt_HukclP0nCcabdX-16" value="- showWinGame() : void" style="text;align=left;verticalAlign=top;spacingLeft=4;spacingRight=4;overflow=hidden;rotatable=0;points=[[0,0.5],[1,0.5]];portConstraint=eastwest;rounded=0;shadow=0;html=0;" parent="zkfFHV4jXpPFQw0GAbJ--17" vertex="1">
          <mxGeometry y="806" width="280" height="26" as="geometry" />
        </mxCell>
        <mxCell id="KPDPt_HukclP0nCcabdX-17" value="HTMLToText" style="swimlane;fontStyle=0;childLayout=stackLayout;horizontal=1;startSize=30;horizontalStack=0;resizeParent=1;resizeParentMax=0;resizeLast=0;collapsible=1;marginBottom=0;whiteSpace=wrap;html=1;" parent="WIyWlLk6GJQsqaUBKTNV-1" vertex="1">
          <mxGeometry x="1241" y="-220" width="140" height="60" as="geometry" />
        </mxCell>
        <mxCell id="KPDPt_HukclP0nCcabdX-18" value="+ HTMLToText(String)" style="text;strokeColor=none;fillColor=none;align=left;verticalAlign=middle;spacingLeft=4;spacingRight=4;overflow=hidden;points=[[0,0.5],[1,0.5]];portConstraint=eastwest;rotatable=0;whiteSpace=wrap;html=1;" parent="KPDPt_HukclP0nCcabdX-17" vertex="1">
          <mxGeometry y="30" width="140" height="30" as="geometry" />
        </mxCell>
        <mxCell id="KPDPt_HukclP0nCcabdX-31" value="HelloGameController" style="swimlane;fontStyle=0;childLayout=stackLayout;horizontal=1;startSize=30;horizontalStack=0;resizeParent=1;resizeParentMax=0;resizeLast=0;collapsible=1;marginBottom=0;whiteSpace=wrap;html=1;" parent="WIyWlLk6GJQsqaUBKTNV-1" vertex="1">
          <mxGeometry x="230" y="30" width="250" height="210" as="geometry" />
        </mxCell>
        <mxCell id="KPDPt_HukclP0nCcabdX-32" value="- diemCao : Text" style="text;strokeColor=none;fillColor=none;align=left;verticalAlign=middle;spacingLeft=4;spacingRight=4;overflow=hidden;points=[[0,0.5],[1,0.5]];portConstraint=eastwest;rotatable=0;whiteSpace=wrap;html=1;" parent="KPDPt_HukclP0nCcabdX-31" vertex="1">
          <mxGeometry y="30" width="250" height="30" as="geometry" />
        </mxCell>
        <mxCell id="KPDPt_HukclP0nCcabdX-33" value="- max_value : int" style="text;strokeColor=none;fillColor=none;align=left;verticalAlign=middle;spacingLeft=4;spacingRight=4;overflow=hidden;points=[[0,0.5],[1,0.5]];portConstraint=eastwest;rotatable=0;whiteSpace=wrap;html=1;" parent="KPDPt_HukclP0nCcabdX-31" vertex="1">
          <mxGeometry y="60" width="250" height="30" as="geometry" />
        </mxCell>
        <mxCell id="KPDPt_HukclP0nCcabdX-34" value="- gameAnchorPane : AnchorPane" style="text;strokeColor=none;fillColor=none;align=left;verticalAlign=middle;spacingLeft=4;spacingRight=4;overflow=hidden;points=[[0,0.5],[1,0.5]];portConstraint=eastwest;rotatable=0;whiteSpace=wrap;html=1;" parent="KPDPt_HukclP0nCcabdX-31" vertex="1">
          <mxGeometry y="90" width="250" height="30" as="geometry" />
        </mxCell>
        <mxCell id="KPDPt_HukclP0nCcabdX-35" value="+&amp;nbsp;scenePlaying(ActionEvent) : void" style="text;strokeColor=none;fillColor=none;align=left;verticalAlign=middle;spacingLeft=4;spacingRight=4;overflow=hidden;points=[[0,0.5],[1,0.5]];portConstraint=eastwest;rotatable=0;whiteSpace=wrap;html=1;" parent="KPDPt_HukclP0nCcabdX-31" vertex="1">
          <mxGeometry y="120" width="250" height="30" as="geometry" />
        </mxCell>
        <mxCell id="KPDPt_HukclP0nCcabdX-36" value="" style="endArrow=none;html=1;rounded=0;entryX=0.999;entryY=0.005;entryDx=0;entryDy=0;entryPerimeter=0;exitX=-0.006;exitY=0.977;exitDx=0;exitDy=0;exitPerimeter=0;" parent="KPDPt_HukclP0nCcabdX-31" source="KPDPt_HukclP0nCcabdX-34" target="KPDPt_HukclP0nCcabdX-35" edge="1">
          <mxGeometry width="50" height="50" relative="1" as="geometry">
            <mxPoint y="90" as="sourcePoint" />
            <mxPoint x="50" y="40" as="targetPoint" />
          </mxGeometry>
        </mxCell>
        <mxCell id="KPDPt_HukclP0nCcabdX-37" value="+&amp;nbsp;initialize(URL , ResourceBundle) : void" style="text;strokeColor=none;fillColor=none;align=left;verticalAlign=middle;spacingLeft=4;spacingRight=4;overflow=hidden;points=[[0,0.5],[1,0.5]];portConstraint=eastwest;rotatable=0;whiteSpace=wrap;html=1;" parent="KPDPt_HukclP0nCcabdX-31" vertex="1">
          <mxGeometry y="150" width="250" height="30" as="geometry" />
        </mxCell>
        <mxCell id="KPDPt_HukclP0nCcabdX-38" value="+&amp;nbsp;&amp;nbsp;huongDan(ActionEvent) : void" style="text;strokeColor=none;fillColor=none;align=left;verticalAlign=middle;spacingLeft=4;spacingRight=4;overflow=hidden;points=[[0,0.5],[1,0.5]];portConstraint=eastwest;rotatable=0;whiteSpace=wrap;html=1;" parent="KPDPt_HukclP0nCcabdX-31" vertex="1">
          <mxGeometry y="180" width="250" height="30" as="geometry" />
        </mxCell>
        <mxCell id="KPDPt_HukclP0nCcabdX-43" value="HuongDanController" style="swimlane;fontStyle=0;childLayout=stackLayout;horizontal=1;startSize=30;horizontalStack=0;resizeParent=1;resizeParentMax=0;resizeLast=0;collapsible=1;marginBottom=0;whiteSpace=wrap;html=1;" parent="WIyWlLk6GJQsqaUBKTNV-1" vertex="1">
          <mxGeometry x="1560" y="670" width="200" height="90" as="geometry" />
        </mxCell>
        <mxCell id="KPDPt_HukclP0nCcabdX-44" value="-&amp;nbsp;gameAnchorPane : AnchorPane" style="text;strokeColor=none;fillColor=none;align=left;verticalAlign=middle;spacingLeft=4;spacingRight=4;overflow=hidden;points=[[0,0.5],[1,0.5]];portConstraint=eastwest;rotatable=0;whiteSpace=wrap;html=1;" parent="KPDPt_HukclP0nCcabdX-43" vertex="1">
          <mxGeometry y="30" width="200" height="30" as="geometry" />
        </mxCell>
        <mxCell id="KPDPt_HukclP0nCcabdX-46" value="+&amp;nbsp;quayLai(ActionEvent) : void" style="text;strokeColor=none;fillColor=none;align=left;verticalAlign=middle;spacingLeft=4;spacingRight=4;overflow=hidden;points=[[0,0.5],[1,0.5]];portConstraint=eastwest;rotatable=0;whiteSpace=wrap;html=1;" parent="KPDPt_HukclP0nCcabdX-43" vertex="1">
          <mxGeometry y="60" width="200" height="30" as="geometry" />
        </mxCell>
        <mxCell id="KPDPt_HukclP0nCcabdX-47" value="" style="endArrow=none;html=1;rounded=0;entryX=0.995;entryY=0.02;entryDx=0;entryDy=0;entryPerimeter=0;" parent="KPDPt_HukclP0nCcabdX-43" target="KPDPt_HukclP0nCcabdX-46" edge="1">
          <mxGeometry width="50" height="50" relative="1" as="geometry">
            <mxPoint y="61" as="sourcePoint" />
            <mxPoint x="220" y="170" as="targetPoint" />
          </mxGeometry>
        </mxCell>
        <mxCell id="KPDPt_HukclP0nCcabdX-48" value="Main" style="swimlane;fontStyle=0;childLayout=stackLayout;horizontal=1;startSize=30;horizontalStack=0;resizeParent=1;resizeParentMax=0;resizeLast=0;collapsible=1;marginBottom=0;whiteSpace=wrap;html=1;" parent="WIyWlLk6GJQsqaUBKTNV-1" vertex="1">
          <mxGeometry x="-680" y="1600" width="170" height="120" as="geometry" />
        </mxCell>
        <mxCell id="KPDPt_HukclP0nCcabdX-49" value="- dictionary : Dictionary" style="text;strokeColor=none;fillColor=none;align=left;verticalAlign=middle;spacingLeft=4;spacingRight=4;overflow=hidden;points=[[0,0.5],[1,0.5]];portConstraint=eastwest;rotatable=0;whiteSpace=wrap;html=1;" parent="KPDPt_HukclP0nCcabdX-48" vertex="1">
          <mxGeometry y="30" width="170" height="30" as="geometry" />
        </mxCell>
        <mxCell id="KPDPt_HukclP0nCcabdX-50" value="- main(String[] args) : void" style="text;strokeColor=none;fillColor=none;align=left;verticalAlign=middle;spacingLeft=4;spacingRight=4;overflow=hidden;points=[[0,0.5],[1,0.5]];portConstraint=eastwest;rotatable=0;whiteSpace=wrap;html=1;" parent="KPDPt_HukclP0nCcabdX-48" vertex="1">
          <mxGeometry y="60" width="170" height="30" as="geometry" />
        </mxCell>
        <mxCell id="KPDPt_HukclP0nCcabdX-51" value="- start(Stage) : void" style="text;strokeColor=none;fillColor=none;align=left;verticalAlign=middle;spacingLeft=4;spacingRight=4;overflow=hidden;points=[[0,0.5],[1,0.5]];portConstraint=eastwest;rotatable=0;whiteSpace=wrap;html=1;" parent="KPDPt_HukclP0nCcabdX-48" vertex="1">
          <mxGeometry y="90" width="170" height="30" as="geometry" />
        </mxCell>
        <mxCell id="KPDPt_HukclP0nCcabdX-52" value="" style="endArrow=none;html=1;rounded=0;exitX=0.003;exitY=1.015;exitDx=0;exitDy=0;exitPerimeter=0;" parent="KPDPt_HukclP0nCcabdX-48" source="KPDPt_HukclP0nCcabdX-49" edge="1">
          <mxGeometry width="50" height="50" relative="1" as="geometry">
            <mxPoint x="410" y="210" as="sourcePoint" />
            <mxPoint x="170" y="60" as="targetPoint" />
          </mxGeometry>
        </mxCell>
        <mxCell id="KPDPt_HukclP0nCcabdX-53" value="RunController" style="swimlane;fontStyle=0;childLayout=stackLayout;horizontal=1;startSize=30;horizontalStack=0;resizeParent=1;resizeParentMax=0;resizeLast=0;collapsible=1;marginBottom=0;whiteSpace=wrap;html=1;" parent="WIyWlLk6GJQsqaUBKTNV-1" vertex="1">
          <mxGeometry x="-430" y="670" width="240" height="600" as="geometry" />
        </mxCell>
        <mxCell id="KPDPt_HukclP0nCcabdX-54" value="-&amp;nbsp;centerAnchorPane : AnchorPane" style="text;strokeColor=none;fillColor=none;align=left;verticalAlign=middle;spacingLeft=4;spacingRight=4;overflow=hidden;points=[[0,0.5],[1,0.5]];portConstraint=eastwest;rotatable=0;whiteSpace=wrap;html=1;" parent="KPDPt_HukclP0nCcabdX-53" vertex="1">
          <mxGeometry y="30" width="240" height="30" as="geometry" />
        </mxCell>
        <mxCell id="KPDPt_HukclP0nCcabdX-55" value="-&amp;nbsp;searchButton : Button" style="text;strokeColor=none;fillColor=none;align=left;verticalAlign=middle;spacingLeft=4;spacingRight=4;overflow=hidden;points=[[0,0.5],[1,0.5]];portConstraint=eastwest;rotatable=0;whiteSpace=wrap;html=1;" parent="KPDPt_HukclP0nCcabdX-53" vertex="1">
          <mxGeometry y="60" width="240" height="30" as="geometry" />
        </mxCell>
        <mxCell id="KPDPt_HukclP0nCcabdX-58" value="- addButton : Button" style="text;strokeColor=none;fillColor=none;align=left;verticalAlign=middle;spacingLeft=4;spacingRight=4;overflow=hidden;points=[[0,0.5],[1,0.5]];portConstraint=eastwest;rotatable=0;whiteSpace=wrap;html=1;" parent="KPDPt_HukclP0nCcabdX-53" vertex="1">
          <mxGeometry y="90" width="240" height="30" as="geometry" />
        </mxCell>
        <mxCell id="KPDPt_HukclP0nCcabdX-59" value="- translateButton : Button" style="text;strokeColor=none;fillColor=none;align=left;verticalAlign=middle;spacingLeft=4;spacingRight=4;overflow=hidden;points=[[0,0.5],[1,0.5]];portConstraint=eastwest;rotatable=0;whiteSpace=wrap;html=1;" parent="KPDPt_HukclP0nCcabdX-53" vertex="1">
          <mxGeometry y="120" width="240" height="30" as="geometry" />
        </mxCell>
        <mxCell id="KPDPt_HukclP0nCcabdX-60" value="- gameButton : Button" style="text;strokeColor=none;fillColor=none;align=left;verticalAlign=middle;spacingLeft=4;spacingRight=4;overflow=hidden;points=[[0,0.5],[1,0.5]];portConstraint=eastwest;rotatable=0;whiteSpace=wrap;html=1;" parent="KPDPt_HukclP0nCcabdX-53" vertex="1">
          <mxGeometry y="150" width="240" height="30" as="geometry" />
        </mxCell>
        <mxCell id="KPDPt_HukclP0nCcabdX-61" value="-&amp;nbsp;isSearchChoosing : boolean" style="text;strokeColor=none;fillColor=none;align=left;verticalAlign=middle;spacingLeft=4;spacingRight=4;overflow=hidden;points=[[0,0.5],[1,0.5]];portConstraint=eastwest;rotatable=0;whiteSpace=wrap;html=1;" parent="KPDPt_HukclP0nCcabdX-53" vertex="1">
          <mxGeometry y="180" width="240" height="30" as="geometry" />
        </mxCell>
        <mxCell id="KPDPt_HukclP0nCcabdX-62" value="-&amp;nbsp;isAddChoosing : boolean" style="text;strokeColor=none;fillColor=none;align=left;verticalAlign=middle;spacingLeft=4;spacingRight=4;overflow=hidden;points=[[0,0.5],[1,0.5]];portConstraint=eastwest;rotatable=0;whiteSpace=wrap;html=1;" parent="KPDPt_HukclP0nCcabdX-53" vertex="1">
          <mxGeometry y="210" width="240" height="30" as="geometry" />
        </mxCell>
        <mxCell id="KPDPt_HukclP0nCcabdX-63" value="-&amp;nbsp;isTranslateChoosing : boolean" style="text;strokeColor=none;fillColor=none;align=left;verticalAlign=middle;spacingLeft=4;spacingRight=4;overflow=hidden;points=[[0,0.5],[1,0.5]];portConstraint=eastwest;rotatable=0;whiteSpace=wrap;html=1;" parent="KPDPt_HukclP0nCcabdX-53" vertex="1">
          <mxGeometry y="240" width="240" height="30" as="geometry" />
        </mxCell>
        <mxCell id="KPDPt_HukclP0nCcabdX-64" value="-&amp;nbsp;isGameChoosing : boolean" style="text;strokeColor=none;fillColor=none;align=left;verticalAlign=middle;spacingLeft=4;spacingRight=4;overflow=hidden;points=[[0,0.5],[1,0.5]];portConstraint=eastwest;rotatable=0;whiteSpace=wrap;html=1;" parent="KPDPt_HukclP0nCcabdX-53" vertex="1">
          <mxGeometry y="270" width="240" height="30" as="geometry" />
        </mxCell>
        <mxCell id="KPDPt_HukclP0nCcabdX-65" value="- initialize(URL , ResourceBundle)" style="text;strokeColor=none;fillColor=none;align=left;verticalAlign=middle;spacingLeft=4;spacingRight=4;overflow=hidden;points=[[0,0.5],[1,0.5]];portConstraint=eastwest;rotatable=0;whiteSpace=wrap;html=1;" parent="KPDPt_HukclP0nCcabdX-53" vertex="1">
          <mxGeometry y="300" width="240" height="30" as="geometry" />
        </mxCell>
        <mxCell id="KPDPt_HukclP0nCcabdX-66" value="+ goSearchWord(ActionEvent) : void" style="text;strokeColor=none;fillColor=none;align=left;verticalAlign=middle;spacingLeft=4;spacingRight=4;overflow=hidden;points=[[0,0.5],[1,0.5]];portConstraint=eastwest;rotatable=0;whiteSpace=wrap;html=1;" parent="KPDPt_HukclP0nCcabdX-53" vertex="1">
          <mxGeometry y="330" width="240" height="30" as="geometry" />
        </mxCell>
        <mxCell id="KPDPt_HukclP0nCcabdX-67" value="+ goSearchWord(ActionEvent) : void" style="text;strokeColor=none;fillColor=none;align=left;verticalAlign=middle;spacingLeft=4;spacingRight=4;overflow=hidden;points=[[0,0.5],[1,0.5]];portConstraint=eastwest;rotatable=0;whiteSpace=wrap;html=1;" parent="KPDPt_HukclP0nCcabdX-53" vertex="1">
          <mxGeometry y="360" width="240" height="30" as="geometry" />
        </mxCell>
        <mxCell id="KPDPt_HukclP0nCcabdX-68" value="+&amp;nbsp;goAddWord(ActionEvent) : void" style="text;strokeColor=none;fillColor=none;align=left;verticalAlign=middle;spacingLeft=4;spacingRight=4;overflow=hidden;points=[[0,0.5],[1,0.5]];portConstraint=eastwest;rotatable=0;whiteSpace=wrap;html=1;" parent="KPDPt_HukclP0nCcabdX-53" vertex="1">
          <mxGeometry y="390" width="240" height="30" as="geometry" />
        </mxCell>
        <mxCell id="KPDPt_HukclP0nCcabdX-69" value="+&amp;nbsp;goTranslate(ActionEvent) : void" style="text;strokeColor=none;fillColor=none;align=left;verticalAlign=middle;spacingLeft=4;spacingRight=4;overflow=hidden;points=[[0,0.5],[1,0.5]];portConstraint=eastwest;rotatable=0;whiteSpace=wrap;html=1;" parent="KPDPt_HukclP0nCcabdX-53" vertex="1">
          <mxGeometry y="420" width="240" height="30" as="geometry" />
        </mxCell>
        <mxCell id="KPDPt_HukclP0nCcabdX-70" value="+&amp;nbsp;goGame(ActionEvent) : void" style="text;strokeColor=none;fillColor=none;align=left;verticalAlign=middle;spacingLeft=4;spacingRight=4;overflow=hidden;points=[[0,0.5],[1,0.5]];portConstraint=eastwest;rotatable=0;whiteSpace=wrap;html=1;" parent="KPDPt_HukclP0nCcabdX-53" vertex="1">
          <mxGeometry y="450" width="240" height="30" as="geometry" />
        </mxCell>
        <mxCell id="KPDPt_HukclP0nCcabdX-71" value="+&amp;nbsp;searchChoosing() : void" style="text;strokeColor=none;fillColor=none;align=left;verticalAlign=middle;spacingLeft=4;spacingRight=4;overflow=hidden;points=[[0,0.5],[1,0.5]];portConstraint=eastwest;rotatable=0;whiteSpace=wrap;html=1;" parent="KPDPt_HukclP0nCcabdX-53" vertex="1">
          <mxGeometry y="480" width="240" height="30" as="geometry" />
        </mxCell>
        <mxCell id="KPDPt_HukclP0nCcabdX-72" value="+ addChoosing() : void" style="text;strokeColor=none;fillColor=none;align=left;verticalAlign=middle;spacingLeft=4;spacingRight=4;overflow=hidden;points=[[0,0.5],[1,0.5]];portConstraint=eastwest;rotatable=0;whiteSpace=wrap;html=1;" parent="KPDPt_HukclP0nCcabdX-53" vertex="1">
          <mxGeometry y="510" width="240" height="30" as="geometry" />
        </mxCell>
        <mxCell id="KPDPt_HukclP0nCcabdX-73" value="+ translateChoosing() : void" style="text;strokeColor=none;fillColor=none;align=left;verticalAlign=middle;spacingLeft=4;spacingRight=4;overflow=hidden;points=[[0,0.5],[1,0.5]];portConstraint=eastwest;rotatable=0;whiteSpace=wrap;html=1;" parent="KPDPt_HukclP0nCcabdX-53" vertex="1">
          <mxGeometry y="540" width="240" height="30" as="geometry" />
        </mxCell>
        <mxCell id="KPDPt_HukclP0nCcabdX-74" value="+ gameChoosing() : void" style="text;strokeColor=none;fillColor=none;align=left;verticalAlign=middle;spacingLeft=4;spacingRight=4;overflow=hidden;points=[[0,0.5],[1,0.5]];portConstraint=eastwest;rotatable=0;whiteSpace=wrap;html=1;" parent="KPDPt_HukclP0nCcabdX-53" vertex="1">
          <mxGeometry y="570" width="240" height="30" as="geometry" />
        </mxCell>
        <mxCell id="KPDPt_HukclP0nCcabdX-75" value="" style="endArrow=none;html=1;rounded=0;exitX=-0.006;exitY=0.967;exitDx=0;exitDy=0;exitPerimeter=0;entryX=1.011;entryY=0.967;entryDx=0;entryDy=0;entryPerimeter=0;" parent="KPDPt_HukclP0nCcabdX-53" source="KPDPt_HukclP0nCcabdX-65" target="KPDPt_HukclP0nCcabdX-65" edge="1">
          <mxGeometry width="50" height="50" relative="1" as="geometry">
            <mxPoint x="230" y="280" as="sourcePoint" />
            <mxPoint x="280" y="230" as="targetPoint" />
          </mxGeometry>
        </mxCell>
        <mxCell id="KPDPt_HukclP0nCcabdX-76" value="SceneSwitch" style="swimlane;fontStyle=0;childLayout=stackLayout;horizontal=1;startSize=30;horizontalStack=0;resizeParent=1;resizeParentMax=0;resizeLast=0;collapsible=1;marginBottom=0;whiteSpace=wrap;html=1;" parent="WIyWlLk6GJQsqaUBKTNV-1" vertex="1">
          <mxGeometry x="-750" y="880" width="220" height="60" as="geometry" />
        </mxCell>
        <mxCell id="KPDPt_HukclP0nCcabdX-77" value="+ SceneSwitch(AnchorPane , String )" style="text;strokeColor=none;fillColor=none;align=left;verticalAlign=middle;spacingLeft=4;spacingRight=4;overflow=hidden;points=[[0,0.5],[1,0.5]];portConstraint=eastwest;rotatable=0;whiteSpace=wrap;html=1;" parent="KPDPt_HukclP0nCcabdX-76" vertex="1">
          <mxGeometry y="30" width="220" height="30" as="geometry" />
        </mxCell>
        <mxCell id="KPDPt_HukclP0nCcabdX-80" value="SearchWordController" style="swimlane;fontStyle=0;childLayout=stackLayout;horizontal=1;startSize=30;horizontalStack=0;resizeParent=1;resizeParentMax=0;resizeLast=0;collapsible=1;marginBottom=0;whiteSpace=wrap;html=1;" parent="WIyWlLk6GJQsqaUBKTNV-1" vertex="1">
          <mxGeometry x="730" y="-10" width="250" height="510" as="geometry" />
        </mxCell>
        <mxCell id="KPDPt_HukclP0nCcabdX-81" value="+&amp;nbsp;searchTextField : TextField" style="text;strokeColor=none;fillColor=none;align=left;verticalAlign=middle;spacingLeft=4;spacingRight=4;overflow=hidden;points=[[0,0.5],[1,0.5]];portConstraint=eastwest;rotatable=0;whiteSpace=wrap;html=1;" parent="KPDPt_HukclP0nCcabdX-80" vertex="1">
          <mxGeometry y="30" width="250" height="30" as="geometry" />
        </mxCell>
        <mxCell id="KPDPt_HukclP0nCcabdX-82" value="- tableView :&amp;nbsp;TableView&amp;lt;Word&amp;gt;" style="text;strokeColor=none;fillColor=none;align=left;verticalAlign=middle;spacingLeft=4;spacingRight=4;overflow=hidden;points=[[0,0.5],[1,0.5]];portConstraint=eastwest;rotatable=0;whiteSpace=wrap;html=1;" parent="KPDPt_HukclP0nCcabdX-80" vertex="1">
          <mxGeometry y="60" width="250" height="30" as="geometry" />
        </mxCell>
        <mxCell id="KPDPt_HukclP0nCcabdX-83" value="-&amp;nbsp;wordColumn :&amp;nbsp;TableColumn&amp;lt;Word, String&amp;gt;" style="text;strokeColor=none;fillColor=none;align=left;verticalAlign=middle;spacingLeft=4;spacingRight=4;overflow=hidden;points=[[0,0.5],[1,0.5]];portConstraint=eastwest;rotatable=0;whiteSpace=wrap;html=1;" parent="KPDPt_HukclP0nCcabdX-80" vertex="1">
          <mxGeometry y="90" width="250" height="30" as="geometry" />
        </mxCell>
        <mxCell id="KPDPt_HukclP0nCcabdX-84" value="+&amp;nbsp;word_explainTextArea : TextArea" style="text;strokeColor=none;fillColor=none;align=left;verticalAlign=middle;spacingLeft=4;spacingRight=4;overflow=hidden;points=[[0,0.5],[1,0.5]];portConstraint=eastwest;rotatable=0;whiteSpace=wrap;html=1;" parent="KPDPt_HukclP0nCcabdX-80" vertex="1">
          <mxGeometry y="120" width="250" height="30" as="geometry" />
        </mxCell>
        <mxCell id="KPDPt_HukclP0nCcabdX-85" value="+&amp;nbsp;word_pronounceTextField : TextField" style="text;strokeColor=none;fillColor=none;align=left;verticalAlign=middle;spacingLeft=4;spacingRight=4;overflow=hidden;points=[[0,0.5],[1,0.5]];portConstraint=eastwest;rotatable=0;whiteSpace=wrap;html=1;" parent="KPDPt_HukclP0nCcabdX-80" vertex="1">
          <mxGeometry y="150" width="250" height="30" as="geometry" />
        </mxCell>
        <mxCell id="KPDPt_HukclP0nCcabdX-86" value="- dictionary : Dictionary" style="text;strokeColor=none;fillColor=none;align=left;verticalAlign=middle;spacingLeft=4;spacingRight=4;overflow=hidden;points=[[0,0.5],[1,0.5]];portConstraint=eastwest;rotatable=0;whiteSpace=wrap;html=1;" parent="KPDPt_HukclP0nCcabdX-80" vertex="1">
          <mxGeometry y="180" width="250" height="30" as="geometry" />
        </mxCell>
        <mxCell id="KPDPt_HukclP0nCcabdX-87" value="-&amp;nbsp;connectNow :&amp;nbsp;DataBaseConnection" style="text;strokeColor=none;fillColor=none;align=left;verticalAlign=middle;spacingLeft=4;spacingRight=4;overflow=hidden;points=[[0,0.5],[1,0.5]];portConstraint=eastwest;rotatable=0;whiteSpace=wrap;html=1;" parent="KPDPt_HukclP0nCcabdX-80" vertex="1">
          <mxGeometry y="210" width="250" height="30" as="geometry" />
        </mxCell>
        <mxCell id="KPDPt_HukclP0nCcabdX-88" value="-&amp;nbsp;connection : Connection" style="text;strokeColor=none;fillColor=none;align=left;verticalAlign=middle;spacingLeft=4;spacingRight=4;overflow=hidden;points=[[0,0.5],[1,0.5]];portConstraint=eastwest;rotatable=0;whiteSpace=wrap;html=1;" parent="KPDPt_HukclP0nCcabdX-80" vertex="1">
          <mxGeometry y="240" width="250" height="30" as="geometry" />
        </mxCell>
        <mxCell id="KPDPt_HukclP0nCcabdX-89" value="-&amp;nbsp;&amp;nbsp;wordSearched :&amp;nbsp;ObservableList&amp;lt;Word&amp;gt;" style="text;strokeColor=none;fillColor=none;align=left;verticalAlign=middle;spacingLeft=4;spacingRight=4;overflow=hidden;points=[[0,0.5],[1,0.5]];portConstraint=eastwest;rotatable=0;whiteSpace=wrap;html=1;" parent="KPDPt_HukclP0nCcabdX-80" vertex="1">
          <mxGeometry y="270" width="250" height="30" as="geometry" />
        </mxCell>
        <mxCell id="KPDPt_HukclP0nCcabdX-90" value="+ initialize(URL , ResourceBundle) : void" style="text;strokeColor=none;fillColor=none;align=left;verticalAlign=middle;spacingLeft=4;spacingRight=4;overflow=hidden;points=[[0,0.5],[1,0.5]];portConstraint=eastwest;rotatable=0;whiteSpace=wrap;html=1;" parent="KPDPt_HukclP0nCcabdX-80" vertex="1">
          <mxGeometry y="300" width="250" height="30" as="geometry" />
        </mxCell>
        <mxCell id="KPDPt_HukclP0nCcabdX-91" value="+&amp;nbsp;showAllInfoWord(ActionEvent) : void" style="text;strokeColor=none;fillColor=none;align=left;verticalAlign=middle;spacingLeft=4;spacingRight=4;overflow=hidden;points=[[0,0.5],[1,0.5]];portConstraint=eastwest;rotatable=0;whiteSpace=wrap;html=1;" parent="KPDPt_HukclP0nCcabdX-80" vertex="1">
          <mxGeometry y="330" width="250" height="30" as="geometry" />
        </mxCell>
        <mxCell id="KPDPt_HukclP0nCcabdX-92" value="" style="endArrow=none;html=1;rounded=0;exitX=-0.001;exitY=-0.066;exitDx=0;exitDy=0;exitPerimeter=0;entryX=0.999;entryY=0.934;entryDx=0;entryDy=0;entryPerimeter=0;" parent="KPDPt_HukclP0nCcabdX-80" source="KPDPt_HukclP0nCcabdX-90" target="KPDPt_HukclP0nCcabdX-89" edge="1">
          <mxGeometry width="50" height="50" relative="1" as="geometry">
            <mxPoint x="40" y="100" as="sourcePoint" />
            <mxPoint x="250" y="300" as="targetPoint" />
          </mxGeometry>
        </mxCell>
        <mxCell id="KPDPt_HukclP0nCcabdX-93" value="+&amp;nbsp;fixWord(ActionEvent) : void" style="text;strokeColor=none;fillColor=none;align=left;verticalAlign=middle;spacingLeft=4;spacingRight=4;overflow=hidden;points=[[0,0.5],[1,0.5]];portConstraint=eastwest;rotatable=0;whiteSpace=wrap;html=1;" parent="KPDPt_HukclP0nCcabdX-80" vertex="1">
          <mxGeometry y="360" width="250" height="30" as="geometry" />
        </mxCell>
        <mxCell id="KPDPt_HukclP0nCcabdX-94" value="+&amp;nbsp;deleteWord(ActionEvent) : void" style="text;strokeColor=none;fillColor=none;align=left;verticalAlign=middle;spacingLeft=4;spacingRight=4;overflow=hidden;points=[[0,0.5],[1,0.5]];portConstraint=eastwest;rotatable=0;whiteSpace=wrap;html=1;" parent="KPDPt_HukclP0nCcabdX-80" vertex="1">
          <mxGeometry y="390" width="250" height="30" as="geometry" />
        </mxCell>
        <mxCell id="KPDPt_HukclP0nCcabdX-95" value="+&amp;nbsp;save(ActionEvent) : void" style="text;strokeColor=none;fillColor=none;align=left;verticalAlign=middle;spacingLeft=4;spacingRight=4;overflow=hidden;points=[[0,0.5],[1,0.5]];portConstraint=eastwest;rotatable=0;whiteSpace=wrap;html=1;" parent="KPDPt_HukclP0nCcabdX-80" vertex="1">
          <mxGeometry y="420" width="250" height="30" as="geometry" />
        </mxCell>
        <mxCell id="KPDPt_HukclP0nCcabdX-96" value="+&amp;nbsp;search(ActionEvent) : void&amp;nbsp;" style="text;strokeColor=none;fillColor=none;align=left;verticalAlign=middle;spacingLeft=4;spacingRight=4;overflow=hidden;points=[[0,0.5],[1,0.5]];portConstraint=eastwest;rotatable=0;whiteSpace=wrap;html=1;" parent="KPDPt_HukclP0nCcabdX-80" vertex="1">
          <mxGeometry y="450" width="250" height="30" as="geometry" />
        </mxCell>
        <mxCell id="KPDPt_HukclP0nCcabdX-97" value="speak(ActionEvent ) : void" style="text;strokeColor=none;fillColor=none;align=left;verticalAlign=middle;spacingLeft=4;spacingRight=4;overflow=hidden;points=[[0,0.5],[1,0.5]];portConstraint=eastwest;rotatable=0;whiteSpace=wrap;html=1;" parent="KPDPt_HukclP0nCcabdX-80" vertex="1">
          <mxGeometry y="480" width="250" height="30" as="geometry" />
        </mxCell>
        <mxCell id="KPDPt_HukclP0nCcabdX-98" value="Speaker" style="swimlane;fontStyle=0;childLayout=stackLayout;horizontal=1;startSize=30;horizontalStack=0;resizeParent=1;resizeParentMax=0;resizeLast=0;collapsible=1;marginBottom=0;whiteSpace=wrap;html=1;" parent="WIyWlLk6GJQsqaUBKTNV-1" vertex="1">
          <mxGeometry x="850" y="-460" width="210" height="210" as="geometry" />
        </mxCell>
        <mxCell id="KPDPt_HukclP0nCcabdX-99" value="-&amp;nbsp;&amp;nbsp;API_KEY : String&amp;nbsp;" style="text;strokeColor=none;fillColor=none;align=left;verticalAlign=middle;spacingLeft=4;spacingRight=4;overflow=hidden;points=[[0,0.5],[1,0.5]];portConstraint=eastwest;rotatable=0;whiteSpace=wrap;html=1;" parent="KPDPt_HukclP0nCcabdX-98" vertex="1">
          <mxGeometry y="30" width="210" height="30" as="geometry" />
        </mxCell>
        <mxCell id="KPDPt_HukclP0nCcabdX-100" value="-&amp;nbsp;AUDIO_PATH : String" style="text;strokeColor=none;fillColor=none;align=left;verticalAlign=middle;spacingLeft=4;spacingRight=4;overflow=hidden;points=[[0,0.5],[1,0.5]];portConstraint=eastwest;rotatable=0;whiteSpace=wrap;html=1;" parent="KPDPt_HukclP0nCcabdX-98" vertex="1">
          <mxGeometry y="60" width="210" height="30" as="geometry" />
        </mxCell>
        <mxCell id="KPDPt_HukclP0nCcabdX-101" value="+&amp;nbsp;language : String&amp;nbsp;" style="text;strokeColor=none;fillColor=none;align=left;verticalAlign=middle;spacingLeft=4;spacingRight=4;overflow=hidden;points=[[0,0.5],[1,0.5]];portConstraint=eastwest;rotatable=0;whiteSpace=wrap;html=1;" parent="KPDPt_HukclP0nCcabdX-98" vertex="1">
          <mxGeometry y="90" width="210" height="30" as="geometry" />
        </mxCell>
        <mxCell id="KPDPt_HukclP0nCcabdX-102" value="+ Name : String&amp;nbsp;" style="text;strokeColor=none;fillColor=none;align=left;verticalAlign=middle;spacingLeft=4;spacingRight=4;overflow=hidden;points=[[0,0.5],[1,0.5]];portConstraint=eastwest;rotatable=0;whiteSpace=wrap;html=1;" parent="KPDPt_HukclP0nCcabdX-98" vertex="1">
          <mxGeometry y="120" width="210" height="30" as="geometry" />
        </mxCell>
        <mxCell id="KPDPt_HukclP0nCcabdX-103" value="+&amp;nbsp;speakWord(String) : void" style="text;strokeColor=none;fillColor=none;align=left;verticalAlign=middle;spacingLeft=4;spacingRight=4;overflow=hidden;points=[[0,0.5],[1,0.5]];portConstraint=eastwest;rotatable=0;whiteSpace=wrap;html=1;" parent="KPDPt_HukclP0nCcabdX-98" vertex="1">
          <mxGeometry y="150" width="210" height="30" as="geometry" />
        </mxCell>
        <mxCell id="KPDPt_HukclP0nCcabdX-104" value="-&amp;nbsp;playAudio(byte[] audioData) : void" style="text;strokeColor=none;fillColor=none;align=left;verticalAlign=middle;spacingLeft=4;spacingRight=4;overflow=hidden;points=[[0,0.5],[1,0.5]];portConstraint=eastwest;rotatable=0;whiteSpace=wrap;html=1;" parent="KPDPt_HukclP0nCcabdX-98" vertex="1">
          <mxGeometry y="180" width="210" height="30" as="geometry" />
        </mxCell>
        <mxCell id="KPDPt_HukclP0nCcabdX-105" value="" style="endArrow=none;html=1;rounded=0;exitX=0;exitY=0.007;exitDx=0;exitDy=0;exitPerimeter=0;entryX=1;entryY=0.007;entryDx=0;entryDy=0;entryPerimeter=0;" parent="KPDPt_HukclP0nCcabdX-98" source="KPDPt_HukclP0nCcabdX-103" target="KPDPt_HukclP0nCcabdX-103" edge="1">
          <mxGeometry width="50" height="50" relative="1" as="geometry">
            <mxPoint x="50" y="80" as="sourcePoint" />
            <mxPoint x="100" y="30" as="targetPoint" />
          </mxGeometry>
        </mxCell>
        <mxCell id="KPDPt_HukclP0nCcabdX-107" value="" style="swimlane;startSize=0;" parent="WIyWlLk6GJQsqaUBKTNV-1" vertex="1">
          <mxGeometry x="314" y="640" width="200" height="80" as="geometry" />
        </mxCell>
        <mxCell id="KPDPt_HukclP0nCcabdX-110" value="&amp;nbsp;StartController" style="swimlane;fontStyle=0;childLayout=stackLayout;horizontal=1;startSize=30;horizontalStack=0;resizeParent=1;resizeParentMax=0;resizeLast=0;collapsible=1;marginBottom=0;whiteSpace=wrap;html=1;" parent="WIyWlLk6GJQsqaUBKTNV-1" vertex="1">
          <mxGeometry x="-190" y="120" width="240" height="150" as="geometry" />
        </mxCell>
        <mxCell id="KPDPt_HukclP0nCcabdX-111" value="-&amp;nbsp;scene1AnchorPane : AnchorPane" style="text;strokeColor=none;fillColor=none;align=left;verticalAlign=middle;spacingLeft=4;spacingRight=4;overflow=hidden;points=[[0,0.5],[1,0.5]];portConstraint=eastwest;rotatable=0;whiteSpace=wrap;html=1;" parent="KPDPt_HukclP0nCcabdX-110" vertex="1">
          <mxGeometry y="30" width="240" height="30" as="geometry" />
        </mxCell>
        <mxCell id="KPDPt_HukclP0nCcabdX-113" value="+ initialize(URL , ResourceBundle) : void" style="text;strokeColor=none;fillColor=none;align=left;verticalAlign=middle;spacingLeft=4;spacingRight=4;overflow=hidden;points=[[0,0.5],[1,0.5]];portConstraint=eastwest;rotatable=0;whiteSpace=wrap;html=1;" parent="KPDPt_HukclP0nCcabdX-110" vertex="1">
          <mxGeometry y="60" width="240" height="30" as="geometry" />
        </mxCell>
        <mxCell id="KPDPt_HukclP0nCcabdX-114" value="-&amp;nbsp;getInformation(ActionEvent) : void&amp;nbsp;" style="text;strokeColor=none;fillColor=none;align=left;verticalAlign=middle;spacingLeft=4;spacingRight=4;overflow=hidden;points=[[0,0.5],[1,0.5]];portConstraint=eastwest;rotatable=0;whiteSpace=wrap;html=1;" parent="KPDPt_HukclP0nCcabdX-110" vertex="1">
          <mxGeometry y="90" width="240" height="30" as="geometry" />
        </mxCell>
        <mxCell id="jGSYFQY-Ii_sOWv5YD1a-0" value="+&amp;nbsp;start(ActionEvent ) : void&amp;nbsp;" style="text;strokeColor=none;fillColor=none;align=left;verticalAlign=middle;spacingLeft=4;spacingRight=4;overflow=hidden;points=[[0,0.5],[1,0.5]];portConstraint=eastwest;rotatable=0;whiteSpace=wrap;html=1;" parent="KPDPt_HukclP0nCcabdX-110" vertex="1">
          <mxGeometry y="120" width="240" height="30" as="geometry" />
        </mxCell>
        <mxCell id="jGSYFQY-Ii_sOWv5YD1a-1" value="" style="endArrow=none;html=1;rounded=0;exitX=0.002;exitY=0;exitDx=0;exitDy=0;exitPerimeter=0;entryX=1.003;entryY=-0.021;entryDx=0;entryDy=0;entryPerimeter=0;" parent="KPDPt_HukclP0nCcabdX-110" source="KPDPt_HukclP0nCcabdX-113" target="KPDPt_HukclP0nCcabdX-113" edge="1">
          <mxGeometry width="50" height="50" relative="1" as="geometry">
            <mxPoint x="80" y="50" as="sourcePoint" />
            <mxPoint x="130" as="targetPoint" />
          </mxGeometry>
        </mxCell>
        <mxCell id="jGSYFQY-Ii_sOWv5YD1a-2" value="&amp;nbsp;Translate&amp;nbsp;" style="swimlane;fontStyle=0;childLayout=stackLayout;horizontal=1;startSize=30;horizontalStack=0;resizeParent=1;resizeParentMax=0;resizeLast=0;collapsible=1;marginBottom=0;whiteSpace=wrap;html=1;" parent="WIyWlLk6GJQsqaUBKTNV-1" vertex="1">
          <mxGeometry x="1140" y="980" width="290" height="70" as="geometry" />
        </mxCell>
        <mxCell id="jGSYFQY-Ii_sOWv5YD1a-3" value="String googleTranslate(String , String , String) : void" style="text;strokeColor=none;fillColor=none;align=left;verticalAlign=middle;spacingLeft=4;spacingRight=4;overflow=hidden;points=[[0,0.5],[1,0.5]];portConstraint=eastwest;rotatable=0;whiteSpace=wrap;html=1;" parent="jGSYFQY-Ii_sOWv5YD1a-2" vertex="1">
          <mxGeometry y="30" width="290" height="40" as="geometry" />
        </mxCell>
        <mxCell id="jGSYFQY-Ii_sOWv5YD1a-6" value="TranslateController" style="swimlane;fontStyle=0;childLayout=stackLayout;horizontal=1;startSize=30;horizontalStack=0;resizeParent=1;resizeParentMax=0;resizeLast=0;collapsible=1;marginBottom=0;whiteSpace=wrap;html=1;" parent="WIyWlLk6GJQsqaUBKTNV-1" vertex="1">
          <mxGeometry x="760" y="770" width="250" height="300" as="geometry" />
        </mxCell>
        <mxCell id="jGSYFQY-Ii_sOWv5YD1a-7" value="+&amp;nbsp;switchButton : Button" style="text;strokeColor=none;fillColor=none;align=left;verticalAlign=middle;spacingLeft=4;spacingRight=4;overflow=hidden;points=[[0,0.5],[1,0.5]];portConstraint=eastwest;rotatable=0;whiteSpace=wrap;html=1;" parent="jGSYFQY-Ii_sOWv5YD1a-6" vertex="1">
          <mxGeometry y="30" width="250" height="30" as="geometry" />
        </mxCell>
        <mxCell id="jGSYFQY-Ii_sOWv5YD1a-8" value="+ english : Label" style="text;strokeColor=none;fillColor=none;align=left;verticalAlign=middle;spacingLeft=4;spacingRight=4;overflow=hidden;points=[[0,0.5],[1,0.5]];portConstraint=eastwest;rotatable=0;whiteSpace=wrap;html=1;" parent="jGSYFQY-Ii_sOWv5YD1a-6" vertex="1">
          <mxGeometry y="60" width="250" height="30" as="geometry" />
        </mxCell>
        <mxCell id="jGSYFQY-Ii_sOWv5YD1a-9" value="+ vietnam : Label" style="text;strokeColor=none;fillColor=none;align=left;verticalAlign=middle;spacingLeft=4;spacingRight=4;overflow=hidden;points=[[0,0.5],[1,0.5]];portConstraint=eastwest;rotatable=0;whiteSpace=wrap;html=1;" parent="jGSYFQY-Ii_sOWv5YD1a-6" vertex="1">
          <mxGeometry y="90" width="250" height="30" as="geometry" />
        </mxCell>
        <mxCell id="jGSYFQY-Ii_sOWv5YD1a-10" value="+&amp;nbsp;translateFromTextArea : TextArea" style="text;strokeColor=none;fillColor=none;align=left;verticalAlign=middle;spacingLeft=4;spacingRight=4;overflow=hidden;points=[[0,0.5],[1,0.5]];portConstraint=eastwest;rotatable=0;whiteSpace=wrap;html=1;" parent="jGSYFQY-Ii_sOWv5YD1a-6" vertex="1">
          <mxGeometry y="120" width="250" height="30" as="geometry" />
        </mxCell>
        <mxCell id="jGSYFQY-Ii_sOWv5YD1a-11" value="+&amp;nbsp;translateToTextArea : TextArea" style="text;strokeColor=none;fillColor=none;align=left;verticalAlign=middle;spacingLeft=4;spacingRight=4;overflow=hidden;points=[[0,0.5],[1,0.5]];portConstraint=eastwest;rotatable=0;whiteSpace=wrap;html=1;" parent="jGSYFQY-Ii_sOWv5YD1a-6" vertex="1">
          <mxGeometry y="150" width="250" height="30" as="geometry" />
        </mxCell>
        <mxCell id="jGSYFQY-Ii_sOWv5YD1a-12" value="+&amp;nbsp;translateToVietnamese : boolean&amp;nbsp;" style="text;strokeColor=none;fillColor=none;align=left;verticalAlign=middle;spacingLeft=4;spacingRight=4;overflow=hidden;points=[[0,0.5],[1,0.5]];portConstraint=eastwest;rotatable=0;whiteSpace=wrap;html=1;" parent="jGSYFQY-Ii_sOWv5YD1a-6" vertex="1">
          <mxGeometry y="180" width="250" height="30" as="geometry" />
        </mxCell>
        <mxCell id="jGSYFQY-Ii_sOWv5YD1a-13" value="+&amp;nbsp;initialize(URL , ResourceBundle) : void" style="text;strokeColor=none;fillColor=none;align=left;verticalAlign=middle;spacingLeft=4;spacingRight=4;overflow=hidden;points=[[0,0.5],[1,0.5]];portConstraint=eastwest;rotatable=0;whiteSpace=wrap;html=1;" parent="jGSYFQY-Ii_sOWv5YD1a-6" vertex="1">
          <mxGeometry y="210" width="250" height="30" as="geometry" />
        </mxCell>
        <mxCell id="jGSYFQY-Ii_sOWv5YD1a-14" value="+&amp;nbsp;switchTranslate(ActionEvent) : void" style="text;strokeColor=none;fillColor=none;align=left;verticalAlign=middle;spacingLeft=4;spacingRight=4;overflow=hidden;points=[[0,0.5],[1,0.5]];portConstraint=eastwest;rotatable=0;whiteSpace=wrap;html=1;" parent="jGSYFQY-Ii_sOWv5YD1a-6" vertex="1">
          <mxGeometry y="240" width="250" height="30" as="geometry" />
        </mxCell>
        <mxCell id="jGSYFQY-Ii_sOWv5YD1a-15" value="+&amp;nbsp;translate(ActionEvent) : void&amp;nbsp;" style="text;strokeColor=none;fillColor=none;align=left;verticalAlign=middle;spacingLeft=4;spacingRight=4;overflow=hidden;points=[[0,0.5],[1,0.5]];portConstraint=eastwest;rotatable=0;whiteSpace=wrap;html=1;" parent="jGSYFQY-Ii_sOWv5YD1a-6" vertex="1">
          <mxGeometry y="270" width="250" height="30" as="geometry" />
        </mxCell>
        <mxCell id="jGSYFQY-Ii_sOWv5YD1a-16" value="" style="endArrow=none;html=1;rounded=0;entryX=1;entryY=-0.024;entryDx=0;entryDy=0;entryPerimeter=0;exitX=-0.004;exitY=-0.003;exitDx=0;exitDy=0;exitPerimeter=0;" parent="jGSYFQY-Ii_sOWv5YD1a-6" source="jGSYFQY-Ii_sOWv5YD1a-13" target="jGSYFQY-Ii_sOWv5YD1a-13" edge="1">
          <mxGeometry width="50" height="50" relative="1" as="geometry">
            <mxPoint x="40" y="230" as="sourcePoint" />
            <mxPoint x="90" y="180" as="targetPoint" />
          </mxGeometry>
        </mxCell>
        <mxCell id="jGSYFQY-Ii_sOWv5YD1a-17" value="WinController&amp;nbsp;" style="swimlane;fontStyle=0;childLayout=stackLayout;horizontal=1;startSize=30;horizontalStack=0;resizeParent=1;resizeParentMax=0;resizeLast=0;collapsible=1;marginBottom=0;whiteSpace=wrap;html=1;" parent="WIyWlLk6GJQsqaUBKTNV-1" vertex="1">
          <mxGeometry x="-70" y="960" width="240" height="150" as="geometry" />
        </mxCell>
        <mxCell id="jGSYFQY-Ii_sOWv5YD1a-18" value="- diemCao1 : Text&amp;nbsp;" style="text;strokeColor=none;fillColor=none;align=left;verticalAlign=middle;spacingLeft=4;spacingRight=4;overflow=hidden;points=[[0,0.5],[1,0.5]];portConstraint=eastwest;rotatable=0;whiteSpace=wrap;html=1;" parent="jGSYFQY-Ii_sOWv5YD1a-17" vertex="1">
          <mxGeometry y="30" width="240" height="30" as="geometry" />
        </mxCell>
        <mxCell id="jGSYFQY-Ii_sOWv5YD1a-19" value="-&amp;nbsp;gameAnchorPane : AnchorPane" style="text;strokeColor=none;fillColor=none;align=left;verticalAlign=middle;spacingLeft=4;spacingRight=4;overflow=hidden;points=[[0,0.5],[1,0.5]];portConstraint=eastwest;rotatable=0;whiteSpace=wrap;html=1;" parent="jGSYFQY-Ii_sOWv5YD1a-17" vertex="1">
          <mxGeometry y="60" width="240" height="30" as="geometry" />
        </mxCell>
        <mxCell id="jGSYFQY-Ii_sOWv5YD1a-20" value="+&amp;nbsp;returnMenu(ActionEvent ) : void" style="text;strokeColor=none;fillColor=none;align=left;verticalAlign=middle;spacingLeft=4;spacingRight=4;overflow=hidden;points=[[0,0.5],[1,0.5]];portConstraint=eastwest;rotatable=0;whiteSpace=wrap;html=1;" parent="jGSYFQY-Ii_sOWv5YD1a-17" vertex="1">
          <mxGeometry y="90" width="240" height="30" as="geometry" />
        </mxCell>
        <mxCell id="jGSYFQY-Ii_sOWv5YD1a-21" value="+&amp;nbsp;initialize(URL , ResourceBundle) : void" style="text;strokeColor=none;fillColor=none;align=left;verticalAlign=middle;spacingLeft=4;spacingRight=4;overflow=hidden;points=[[0,0.5],[1,0.5]];portConstraint=eastwest;rotatable=0;whiteSpace=wrap;html=1;" parent="jGSYFQY-Ii_sOWv5YD1a-17" vertex="1">
          <mxGeometry y="120" width="240" height="30" as="geometry" />
        </mxCell>
        <mxCell id="jGSYFQY-Ii_sOWv5YD1a-22" value="" style="endArrow=none;html=1;rounded=0;exitX=0.005;exitY=0.003;exitDx=0;exitDy=0;exitPerimeter=0;" parent="jGSYFQY-Ii_sOWv5YD1a-17" source="jGSYFQY-Ii_sOWv5YD1a-20" edge="1">
          <mxGeometry width="50" height="50" relative="1" as="geometry">
            <mxPoint x="170" y="160" as="sourcePoint" />
            <mxPoint x="240" y="90" as="targetPoint" />
          </mxGeometry>
        </mxCell>
        <mxCell id="jGSYFQY-Ii_sOWv5YD1a-23" value="gameScore" style="swimlane;fontStyle=0;childLayout=stackLayout;horizontal=1;startSize=30;horizontalStack=0;resizeParent=1;resizeParentMax=0;resizeLast=0;collapsible=1;marginBottom=0;whiteSpace=wrap;html=1;" parent="WIyWlLk6GJQsqaUBKTNV-1" vertex="1">
          <mxGeometry x="1570" y="290" width="200" height="300" as="geometry" />
        </mxCell>
        <mxCell id="jGSYFQY-Ii_sOWv5YD1a-24" value="-&amp;nbsp; ins :&amp;nbsp;gameScore" style="text;strokeColor=none;fillColor=none;align=left;verticalAlign=middle;spacingLeft=4;spacingRight=4;overflow=hidden;points=[[0,0.5],[1,0.5]];portConstraint=eastwest;rotatable=0;whiteSpace=wrap;html=1;" parent="jGSYFQY-Ii_sOWv5YD1a-23" vertex="1">
          <mxGeometry y="30" width="200" height="30" as="geometry" />
        </mxCell>
        <mxCell id="jGSYFQY-Ii_sOWv5YD1a-25" value="-&amp;nbsp;diemCuaBan : int&amp;nbsp;" style="text;strokeColor=none;fillColor=none;align=left;verticalAlign=middle;spacingLeft=4;spacingRight=4;overflow=hidden;points=[[0,0.5],[1,0.5]];portConstraint=eastwest;rotatable=0;whiteSpace=wrap;html=1;" parent="jGSYFQY-Ii_sOWv5YD1a-23" vertex="1">
          <mxGeometry y="60" width="200" height="30" as="geometry" />
        </mxCell>
        <mxCell id="jGSYFQY-Ii_sOWv5YD1a-26" value="- maxScore : int&amp;nbsp;" style="text;strokeColor=none;fillColor=none;align=left;verticalAlign=middle;spacingLeft=4;spacingRight=4;overflow=hidden;points=[[0,0.5],[1,0.5]];portConstraint=eastwest;rotatable=0;whiteSpace=wrap;html=1;" parent="jGSYFQY-Ii_sOWv5YD1a-23" vertex="1">
          <mxGeometry y="90" width="200" height="30" as="geometry" />
        </mxCell>
        <mxCell id="jGSYFQY-Ii_sOWv5YD1a-27" value="+&amp;nbsp;getDiemCuaBan() : int" style="text;strokeColor=none;fillColor=none;align=left;verticalAlign=middle;spacingLeft=4;spacingRight=4;overflow=hidden;points=[[0,0.5],[1,0.5]];portConstraint=eastwest;rotatable=0;whiteSpace=wrap;html=1;" parent="jGSYFQY-Ii_sOWv5YD1a-23" vertex="1">
          <mxGeometry y="120" width="200" height="30" as="geometry" />
        </mxCell>
        <mxCell id="jGSYFQY-Ii_sOWv5YD1a-28" value="+&amp;nbsp;setDiemCuaBan(int ) : int&amp;nbsp;" style="text;strokeColor=none;fillColor=none;align=left;verticalAlign=middle;spacingLeft=4;spacingRight=4;overflow=hidden;points=[[0,0.5],[1,0.5]];portConstraint=eastwest;rotatable=0;whiteSpace=wrap;html=1;" parent="jGSYFQY-Ii_sOWv5YD1a-23" vertex="1">
          <mxGeometry y="150" width="200" height="30" as="geometry" />
        </mxCell>
        <mxCell id="jGSYFQY-Ii_sOWv5YD1a-29" value="-&amp;nbsp;gameScore()&amp;nbsp;" style="text;strokeColor=none;fillColor=none;align=left;verticalAlign=middle;spacingLeft=4;spacingRight=4;overflow=hidden;points=[[0,0.5],[1,0.5]];portConstraint=eastwest;rotatable=0;whiteSpace=wrap;html=1;" parent="jGSYFQY-Ii_sOWv5YD1a-23" vertex="1">
          <mxGeometry y="180" width="200" height="30" as="geometry" />
        </mxCell>
        <mxCell id="jGSYFQY-Ii_sOWv5YD1a-30" value="+&amp;nbsp; getIns() : gameScore" style="text;strokeColor=none;fillColor=none;align=left;verticalAlign=middle;spacingLeft=4;spacingRight=4;overflow=hidden;points=[[0,0.5],[1,0.5]];portConstraint=eastwest;rotatable=0;whiteSpace=wrap;html=1;" parent="jGSYFQY-Ii_sOWv5YD1a-23" vertex="1">
          <mxGeometry y="210" width="200" height="30" as="geometry" />
        </mxCell>
        <mxCell id="jGSYFQY-Ii_sOWv5YD1a-31" value="+&amp;nbsp;getMaxScore() : int&amp;nbsp;" style="text;strokeColor=none;fillColor=none;align=left;verticalAlign=middle;spacingLeft=4;spacingRight=4;overflow=hidden;points=[[0,0.5],[1,0.5]];portConstraint=eastwest;rotatable=0;whiteSpace=wrap;html=1;" parent="jGSYFQY-Ii_sOWv5YD1a-23" vertex="1">
          <mxGeometry y="240" width="200" height="30" as="geometry" />
        </mxCell>
        <mxCell id="jGSYFQY-Ii_sOWv5YD1a-32" value="+&amp;nbsp;setMaxScore(int ) : void" style="text;strokeColor=none;fillColor=none;align=left;verticalAlign=middle;spacingLeft=4;spacingRight=4;overflow=hidden;points=[[0,0.5],[1,0.5]];portConstraint=eastwest;rotatable=0;whiteSpace=wrap;html=1;" parent="jGSYFQY-Ii_sOWv5YD1a-23" vertex="1">
          <mxGeometry y="270" width="200" height="30" as="geometry" />
        </mxCell>
        <mxCell id="jGSYFQY-Ii_sOWv5YD1a-33" value="Dictionary" style="swimlane;fontStyle=0;childLayout=stackLayout;horizontal=1;startSize=30;horizontalStack=0;resizeParent=1;resizeParentMax=0;resizeLast=0;collapsible=1;marginBottom=0;whiteSpace=wrap;html=1;" parent="WIyWlLk6GJQsqaUBKTNV-1" vertex="1">
          <mxGeometry x="-1077" y="560" width="250" height="390" as="geometry" />
        </mxCell>
        <mxCell id="jGSYFQY-Ii_sOWv5YD1a-34" value="-&amp;nbsp;&amp;nbsp;words :&amp;nbsp;ArrayList&amp;lt;Word&amp;gt;" style="text;strokeColor=none;fillColor=none;align=left;verticalAlign=middle;spacingLeft=4;spacingRight=4;overflow=hidden;points=[[0,0.5],[1,0.5]];portConstraint=eastwest;rotatable=0;whiteSpace=wrap;html=1;" parent="jGSYFQY-Ii_sOWv5YD1a-33" vertex="1">
          <mxGeometry y="30" width="250" height="30" as="geometry" />
        </mxCell>
        <mxCell id="jGSYFQY-Ii_sOWv5YD1a-35" value="+&amp;nbsp;Dictionary()&amp;nbsp;" style="text;strokeColor=none;fillColor=none;align=left;verticalAlign=middle;spacingLeft=4;spacingRight=4;overflow=hidden;points=[[0,0.5],[1,0.5]];portConstraint=eastwest;rotatable=0;whiteSpace=wrap;html=1;" parent="jGSYFQY-Ii_sOWv5YD1a-33" vertex="1">
          <mxGeometry y="60" width="250" height="30" as="geometry" />
        </mxCell>
        <mxCell id="jGSYFQY-Ii_sOWv5YD1a-36" value="+&amp;nbsp;checkList(int , int , String) : int" style="text;strokeColor=none;fillColor=none;align=left;verticalAlign=middle;spacingLeft=4;spacingRight=4;overflow=hidden;points=[[0,0.5],[1,0.5]];portConstraint=eastwest;rotatable=0;whiteSpace=wrap;html=1;" parent="jGSYFQY-Ii_sOWv5YD1a-33" vertex="1">
          <mxGeometry y="90" width="250" height="30" as="geometry" />
        </mxCell>
        <mxCell id="jGSYFQY-Ii_sOWv5YD1a-37" value="+&amp;nbsp;checkpos(String ) : int&amp;nbsp;" style="text;strokeColor=none;fillColor=none;align=left;verticalAlign=middle;spacingLeft=4;spacingRight=4;overflow=hidden;points=[[0,0.5],[1,0.5]];portConstraint=eastwest;rotatable=0;whiteSpace=wrap;html=1;" parent="jGSYFQY-Ii_sOWv5YD1a-33" vertex="1">
          <mxGeometry y="120" width="250" height="30" as="geometry" />
        </mxCell>
        <mxCell id="jGSYFQY-Ii_sOWv5YD1a-38" value="+&amp;nbsp;addWord(Word ) : void&amp;nbsp;" style="text;strokeColor=none;fillColor=none;align=left;verticalAlign=middle;spacingLeft=4;spacingRight=4;overflow=hidden;points=[[0,0.5],[1,0.5]];portConstraint=eastwest;rotatable=0;whiteSpace=wrap;html=1;" parent="jGSYFQY-Ii_sOWv5YD1a-33" vertex="1">
          <mxGeometry y="150" width="250" height="30" as="geometry" />
        </mxCell>
        <mxCell id="jGSYFQY-Ii_sOWv5YD1a-39" value="+&amp;nbsp;addWordSort(Word) : void&amp;nbsp;" style="text;strokeColor=none;fillColor=none;align=left;verticalAlign=middle;spacingLeft=4;spacingRight=4;overflow=hidden;points=[[0,0.5],[1,0.5]];portConstraint=eastwest;rotatable=0;whiteSpace=wrap;html=1;" parent="jGSYFQY-Ii_sOWv5YD1a-33" vertex="1">
          <mxGeometry y="180" width="250" height="30" as="geometry" />
        </mxCell>
        <mxCell id="jGSYFQY-Ii_sOWv5YD1a-40" value="+&amp;nbsp;lookup(String) : Word&amp;nbsp;" style="text;strokeColor=none;fillColor=none;align=left;verticalAlign=middle;spacingLeft=4;spacingRight=4;overflow=hidden;points=[[0,0.5],[1,0.5]];portConstraint=eastwest;rotatable=0;whiteSpace=wrap;html=1;" parent="jGSYFQY-Ii_sOWv5YD1a-33" vertex="1">
          <mxGeometry y="210" width="250" height="30" as="geometry" />
        </mxCell>
        <mxCell id="jGSYFQY-Ii_sOWv5YD1a-41" value="+&amp;nbsp;deleteWord(Word) : void&amp;nbsp;" style="text;strokeColor=none;fillColor=none;align=left;verticalAlign=middle;spacingLeft=4;spacingRight=4;overflow=hidden;points=[[0,0.5],[1,0.5]];portConstraint=eastwest;rotatable=0;whiteSpace=wrap;html=1;" parent="jGSYFQY-Ii_sOWv5YD1a-33" vertex="1">
          <mxGeometry y="240" width="250" height="30" as="geometry" />
        </mxCell>
        <mxCell id="jGSYFQY-Ii_sOWv5YD1a-42" value="+&amp;nbsp;searcher(String ) :&amp;nbsp;&amp;nbsp;ArrayList&amp;lt;Word&amp;gt;" style="text;strokeColor=none;fillColor=none;align=left;verticalAlign=middle;spacingLeft=4;spacingRight=4;overflow=hidden;points=[[0,0.5],[1,0.5]];portConstraint=eastwest;rotatable=0;whiteSpace=wrap;html=1;" parent="jGSYFQY-Ii_sOWv5YD1a-33" vertex="1">
          <mxGeometry y="270" width="250" height="30" as="geometry" />
        </mxCell>
        <mxCell id="jGSYFQY-Ii_sOWv5YD1a-43" value="+&amp;nbsp;searcher2(String ) :&amp;nbsp;ObservableList&amp;lt;Word&amp;gt;" style="text;strokeColor=none;fillColor=none;align=left;verticalAlign=middle;spacingLeft=4;spacingRight=4;overflow=hidden;points=[[0,0.5],[1,0.5]];portConstraint=eastwest;rotatable=0;whiteSpace=wrap;html=1;" parent="jGSYFQY-Ii_sOWv5YD1a-33" vertex="1">
          <mxGeometry y="300" width="250" height="30" as="geometry" />
        </mxCell>
        <mxCell id="jGSYFQY-Ii_sOWv5YD1a-55" value="+&amp;nbsp;getWords() :&amp;nbsp;&amp;nbsp;ArrayList&amp;lt;Word&amp;gt;" style="text;strokeColor=none;fillColor=none;align=left;verticalAlign=middle;spacingLeft=4;spacingRight=4;overflow=hidden;points=[[0,0.5],[1,0.5]];portConstraint=eastwest;rotatable=0;whiteSpace=wrap;html=1;" parent="jGSYFQY-Ii_sOWv5YD1a-33" vertex="1">
          <mxGeometry y="330" width="250" height="30" as="geometry" />
        </mxCell>
        <mxCell id="jGSYFQY-Ii_sOWv5YD1a-56" value="+&amp;nbsp;setWords(ArrayList&amp;lt;Word&amp;gt; ) : void&amp;nbsp;" style="text;strokeColor=none;fillColor=none;align=left;verticalAlign=middle;spacingLeft=4;spacingRight=4;overflow=hidden;points=[[0,0.5],[1,0.5]];portConstraint=eastwest;rotatable=0;whiteSpace=wrap;html=1;" parent="jGSYFQY-Ii_sOWv5YD1a-33" vertex="1">
          <mxGeometry y="360" width="250" height="30" as="geometry" />
        </mxCell>
        <mxCell id="jGSYFQY-Ii_sOWv5YD1a-62" value="" style="endArrow=none;html=1;rounded=0;entryX=0.999;entryY=0.044;entryDx=0;entryDy=0;entryPerimeter=0;exitX=-0.001;exitY=0.044;exitDx=0;exitDy=0;exitPerimeter=0;" parent="jGSYFQY-Ii_sOWv5YD1a-33" source="jGSYFQY-Ii_sOWv5YD1a-35" target="jGSYFQY-Ii_sOWv5YD1a-35" edge="1">
          <mxGeometry width="50" height="50" relative="1" as="geometry">
            <mxPoint x="-10" y="210" as="sourcePoint" />
            <mxPoint x="40" y="160" as="targetPoint" />
          </mxGeometry>
        </mxCell>
        <mxCell id="jGSYFQY-Ii_sOWv5YD1a-77" value="&amp;nbsp;Game&amp;nbsp;" style="swimlane;fontStyle=0;childLayout=stackLayout;horizontal=1;startSize=30;horizontalStack=0;resizeParent=1;resizeParentMax=0;resizeLast=0;collapsible=1;marginBottom=0;whiteSpace=wrap;html=1;" parent="WIyWlLk6GJQsqaUBKTNV-1" vertex="1">
          <mxGeometry x="-1730" y="40" width="250" height="330" as="geometry" />
        </mxCell>
        <mxCell id="jGSYFQY-Ii_sOWv5YD1a-78" value="+ sr&amp;nbsp; :&amp;nbsp;ioFile&amp;nbsp;" style="text;strokeColor=none;fillColor=none;align=left;verticalAlign=middle;spacingLeft=4;spacingRight=4;overflow=hidden;points=[[0,0.5],[1,0.5]];portConstraint=eastwest;rotatable=0;whiteSpace=wrap;html=1;" parent="jGSYFQY-Ii_sOWv5YD1a-77" vertex="1">
          <mxGeometry y="30" width="250" height="30" as="geometry" />
        </mxCell>
        <mxCell id="jGSYFQY-Ii_sOWv5YD1a-79" value="+ WordList :&amp;nbsp;ArrayList&amp;lt;Word&amp;gt;" style="text;strokeColor=none;fillColor=none;align=left;verticalAlign=middle;spacingLeft=4;spacingRight=4;overflow=hidden;points=[[0,0.5],[1,0.5]];portConstraint=eastwest;rotatable=0;whiteSpace=wrap;html=1;" parent="jGSYFQY-Ii_sOWv5YD1a-77" vertex="1">
          <mxGeometry y="60" width="250" height="30" as="geometry" />
        </mxCell>
        <mxCell id="jGSYFQY-Ii_sOWv5YD1a-80" value="+&amp;nbsp;NumberOfWord : int&amp;nbsp;" style="text;strokeColor=none;fillColor=none;align=left;verticalAlign=middle;spacingLeft=4;spacingRight=4;overflow=hidden;points=[[0,0.5],[1,0.5]];portConstraint=eastwest;rotatable=0;whiteSpace=wrap;html=1;" parent="jGSYFQY-Ii_sOWv5YD1a-77" vertex="1">
          <mxGeometry y="90" width="250" height="30" as="geometry" />
        </mxCell>
        <mxCell id="jGSYFQY-Ii_sOWv5YD1a-81" value="+&amp;nbsp;chooseWord() : String&amp;nbsp;" style="text;strokeColor=none;fillColor=none;align=left;verticalAlign=middle;spacingLeft=4;spacingRight=4;overflow=hidden;points=[[0,0.5],[1,0.5]];portConstraint=eastwest;rotatable=0;whiteSpace=wrap;html=1;" parent="jGSYFQY-Ii_sOWv5YD1a-77" vertex="1">
          <mxGeometry y="120" width="250" height="30" as="geometry" />
        </mxCell>
        <mxCell id="jGSYFQY-Ii_sOWv5YD1a-82" value="+&amp;nbsp;&amp;nbsp;getGuess() : char&amp;nbsp;" style="text;strokeColor=none;fillColor=none;align=left;verticalAlign=middle;spacingLeft=4;spacingRight=4;overflow=hidden;points=[[0,0.5],[1,0.5]];portConstraint=eastwest;rotatable=0;whiteSpace=wrap;html=1;" parent="jGSYFQY-Ii_sOWv5YD1a-77" vertex="1">
          <mxGeometry y="150" width="250" height="30" as="geometry" />
        </mxCell>
        <mxCell id="jGSYFQY-Ii_sOWv5YD1a-83" value="+&amp;nbsp;checkWord(String , char) : void&amp;nbsp;&amp;nbsp;" style="text;strokeColor=none;fillColor=none;align=left;verticalAlign=middle;spacingLeft=4;spacingRight=4;overflow=hidden;points=[[0,0.5],[1,0.5]];portConstraint=eastwest;rotatable=0;whiteSpace=wrap;html=1;" parent="jGSYFQY-Ii_sOWv5YD1a-77" vertex="1">
          <mxGeometry y="180" width="250" height="30" as="geometry" />
        </mxCell>
        <mxCell id="jGSYFQY-Ii_sOWv5YD1a-84" value="+&amp;nbsp;&amp;nbsp;update(String , String, char) : String&amp;nbsp;" style="text;strokeColor=none;fillColor=none;align=left;verticalAlign=middle;spacingLeft=4;spacingRight=4;overflow=hidden;points=[[0,0.5],[1,0.5]];portConstraint=eastwest;rotatable=0;whiteSpace=wrap;html=1;" parent="jGSYFQY-Ii_sOWv5YD1a-77" vertex="1">
          <mxGeometry y="210" width="250" height="30" as="geometry" />
        </mxCell>
        <mxCell id="jGSYFQY-Ii_sOWv5YD1a-85" value="+&amp;nbsp;renderGame(int , String) : void&amp;nbsp;" style="text;strokeColor=none;fillColor=none;align=left;verticalAlign=middle;spacingLeft=4;spacingRight=4;overflow=hidden;points=[[0,0.5],[1,0.5]];portConstraint=eastwest;rotatable=0;whiteSpace=wrap;html=1;" parent="jGSYFQY-Ii_sOWv5YD1a-77" vertex="1">
          <mxGeometry y="240" width="250" height="30" as="geometry" />
        </mxCell>
        <mxCell id="jGSYFQY-Ii_sOWv5YD1a-86" value="+&amp;nbsp;displayFinalGame(boolean , String) : void&amp;nbsp;&amp;nbsp;" style="text;strokeColor=none;fillColor=none;align=left;verticalAlign=middle;spacingLeft=4;spacingRight=4;overflow=hidden;points=[[0,0.5],[1,0.5]];portConstraint=eastwest;rotatable=0;whiteSpace=wrap;html=1;" parent="jGSYFQY-Ii_sOWv5YD1a-77" vertex="1">
          <mxGeometry y="270" width="250" height="30" as="geometry" />
        </mxCell>
        <mxCell id="jGSYFQY-Ii_sOWv5YD1a-87" value="+ Run() : void" style="text;strokeColor=none;fillColor=none;align=left;verticalAlign=middle;spacingLeft=4;spacingRight=4;overflow=hidden;points=[[0,0.5],[1,0.5]];portConstraint=eastwest;rotatable=0;whiteSpace=wrap;html=1;" parent="jGSYFQY-Ii_sOWv5YD1a-77" vertex="1">
          <mxGeometry y="300" width="250" height="30" as="geometry" />
        </mxCell>
        <mxCell id="jGSYFQY-Ii_sOWv5YD1a-88" value="" style="endArrow=none;html=1;rounded=0;entryX=1.005;entryY=0.851;entryDx=0;entryDy=0;exitX=-0.004;exitY=0.851;exitDx=0;exitDy=0;entryPerimeter=0;exitPerimeter=0;" parent="jGSYFQY-Ii_sOWv5YD1a-77" source="jGSYFQY-Ii_sOWv5YD1a-80" target="jGSYFQY-Ii_sOWv5YD1a-80" edge="1">
          <mxGeometry width="50" height="50" relative="1" as="geometry">
            <mxPoint x="50" y="240" as="sourcePoint" />
            <mxPoint x="100" y="190" as="targetPoint" />
          </mxGeometry>
        </mxCell>
        <mxCell id="jGSYFQY-Ii_sOWv5YD1a-57" value="DictionaryCommandline" style="swimlane;fontStyle=0;childLayout=stackLayout;horizontal=1;startSize=30;horizontalStack=0;resizeParent=1;resizeParentMax=0;resizeLast=0;collapsible=1;marginBottom=0;whiteSpace=wrap;html=1;" parent="WIyWlLk6GJQsqaUBKTNV-1" vertex="1">
          <mxGeometry x="-790" y="-210" width="230" height="270" as="geometry" />
        </mxCell>
        <mxCell id="jGSYFQY-Ii_sOWv5YD1a-59" value="-&amp;nbsp; words : ArrayList&amp;lt;Word&amp;gt;" style="text;strokeColor=none;fillColor=none;align=left;verticalAlign=middle;spacingLeft=4;spacingRight=4;overflow=hidden;points=[[0,0.5],[1,0.5]];portConstraint=eastwest;rotatable=0;whiteSpace=wrap;html=1;" parent="jGSYFQY-Ii_sOWv5YD1a-57" vertex="1">
          <mxGeometry y="30" width="230" height="30" as="geometry" />
        </mxCell>
        <mxCell id="jGSYFQY-Ii_sOWv5YD1a-60" value="-&amp;nbsp;dictionary : Dictionary&amp;nbsp;" style="text;strokeColor=none;fillColor=none;align=left;verticalAlign=middle;spacingLeft=4;spacingRight=4;overflow=hidden;points=[[0,0.5],[1,0.5]];portConstraint=eastwest;rotatable=0;whiteSpace=wrap;html=1;" parent="jGSYFQY-Ii_sOWv5YD1a-57" vertex="1">
          <mxGeometry y="60" width="230" height="30" as="geometry" />
        </mxCell>
        <mxCell id="jGSYFQY-Ii_sOWv5YD1a-61" value="+&amp;nbsp;showAll() : void&amp;nbsp;" style="text;strokeColor=none;fillColor=none;align=left;verticalAlign=middle;spacingLeft=4;spacingRight=4;overflow=hidden;points=[[0,0.5],[1,0.5]];portConstraint=eastwest;rotatable=0;whiteSpace=wrap;html=1;" parent="jGSYFQY-Ii_sOWv5YD1a-57" vertex="1">
          <mxGeometry y="90" width="230" height="30" as="geometry" />
        </mxCell>
        <mxCell id="jGSYFQY-Ii_sOWv5YD1a-63" value="+&amp;nbsp;dictionarySearcher() : void&amp;nbsp;" style="text;strokeColor=none;fillColor=none;align=left;verticalAlign=middle;spacingLeft=4;spacingRight=4;overflow=hidden;points=[[0,0.5],[1,0.5]];portConstraint=eastwest;rotatable=0;whiteSpace=wrap;html=1;" parent="jGSYFQY-Ii_sOWv5YD1a-57" vertex="1">
          <mxGeometry y="120" width="230" height="30" as="geometry" />
        </mxCell>
        <mxCell id="jGSYFQY-Ii_sOWv5YD1a-64" value="+&amp;nbsp;DictionaryAdvanced() : void&amp;nbsp;" style="text;strokeColor=none;fillColor=none;align=left;verticalAlign=middle;spacingLeft=4;spacingRight=4;overflow=hidden;points=[[0,0.5],[1,0.5]];portConstraint=eastwest;rotatable=0;whiteSpace=wrap;html=1;" parent="jGSYFQY-Ii_sOWv5YD1a-57" vertex="1">
          <mxGeometry y="150" width="230" height="30" as="geometry" />
        </mxCell>
        <mxCell id="jGSYFQY-Ii_sOWv5YD1a-65" value="+&amp;nbsp;setWords(ArrayList&amp;lt;Word&amp;gt; ) : void&amp;nbsp;" style="text;strokeColor=none;fillColor=none;align=left;verticalAlign=middle;spacingLeft=4;spacingRight=4;overflow=hidden;points=[[0,0.5],[1,0.5]];portConstraint=eastwest;rotatable=0;whiteSpace=wrap;html=1;" parent="jGSYFQY-Ii_sOWv5YD1a-57" vertex="1">
          <mxGeometry y="180" width="230" height="30" as="geometry" />
        </mxCell>
        <mxCell id="jGSYFQY-Ii_sOWv5YD1a-67" value="+&amp;nbsp;&amp;nbsp;getWords() :&amp;nbsp;&amp;nbsp;ArrayList&amp;lt;Word&amp;gt;&amp;nbsp;&amp;nbsp;" style="text;strokeColor=none;fillColor=none;align=left;verticalAlign=middle;spacingLeft=4;spacingRight=4;overflow=hidden;points=[[0,0.5],[1,0.5]];portConstraint=eastwest;rotatable=0;whiteSpace=wrap;html=1;" parent="jGSYFQY-Ii_sOWv5YD1a-57" vertex="1">
          <mxGeometry y="210" width="230" height="30" as="geometry" />
        </mxCell>
        <mxCell id="jGSYFQY-Ii_sOWv5YD1a-68" value="+&amp;nbsp;setDictionary(Dictionary ) : void&amp;nbsp;" style="text;strokeColor=none;fillColor=none;align=left;verticalAlign=middle;spacingLeft=4;spacingRight=4;overflow=hidden;points=[[0,0.5],[1,0.5]];portConstraint=eastwest;rotatable=0;whiteSpace=wrap;html=1;" parent="jGSYFQY-Ii_sOWv5YD1a-57" vertex="1">
          <mxGeometry y="240" width="230" height="30" as="geometry" />
        </mxCell>
        <mxCell id="jGSYFQY-Ii_sOWv5YD1a-69" value="" style="endArrow=none;html=1;rounded=0;exitX=0.002;exitY=-0.032;exitDx=0;exitDy=0;exitPerimeter=0;entryX=1.001;entryY=-0.054;entryDx=0;entryDy=0;entryPerimeter=0;" parent="jGSYFQY-Ii_sOWv5YD1a-57" source="jGSYFQY-Ii_sOWv5YD1a-61" target="jGSYFQY-Ii_sOWv5YD1a-61" edge="1">
          <mxGeometry width="50" height="50" relative="1" as="geometry">
            <mxPoint x="110" y="120" as="sourcePoint" />
            <mxPoint x="160" y="70" as="targetPoint" />
          </mxGeometry>
        </mxCell>
        <mxCell id="jGSYFQY-Ii_sOWv5YD1a-90" value="Word" style="swimlane;fontStyle=0;childLayout=stackLayout;horizontal=1;startSize=30;horizontalStack=0;resizeParent=1;resizeParentMax=0;resizeLast=0;collapsible=1;marginBottom=0;whiteSpace=wrap;html=1;" parent="WIyWlLk6GJQsqaUBKTNV-1" vertex="1">
          <mxGeometry x="-1760" y="450" width="210" height="390" as="geometry" />
        </mxCell>
        <mxCell id="jGSYFQY-Ii_sOWv5YD1a-91" value="+&amp;nbsp;&amp;nbsp;word_target : String&amp;nbsp;" style="text;strokeColor=none;fillColor=none;align=left;verticalAlign=middle;spacingLeft=4;spacingRight=4;overflow=hidden;points=[[0,0.5],[1,0.5]];portConstraint=eastwest;rotatable=0;whiteSpace=wrap;html=1;" parent="jGSYFQY-Ii_sOWv5YD1a-90" vertex="1">
          <mxGeometry y="30" width="210" height="30" as="geometry" />
        </mxCell>
        <mxCell id="jGSYFQY-Ii_sOWv5YD1a-92" value="+&amp;nbsp;&amp;nbsp;word_explain : String&amp;nbsp;" style="text;strokeColor=none;fillColor=none;align=left;verticalAlign=middle;spacingLeft=4;spacingRight=4;overflow=hidden;points=[[0,0.5],[1,0.5]];portConstraint=eastwest;rotatable=0;whiteSpace=wrap;html=1;" parent="jGSYFQY-Ii_sOWv5YD1a-90" vertex="1">
          <mxGeometry y="60" width="210" height="30" as="geometry" />
        </mxCell>
        <mxCell id="jGSYFQY-Ii_sOWv5YD1a-93" value="+&amp;nbsp;word_pronounce : String&amp;nbsp;" style="text;strokeColor=none;fillColor=none;align=left;verticalAlign=middle;spacingLeft=4;spacingRight=4;overflow=hidden;points=[[0,0.5],[1,0.5]];portConstraint=eastwest;rotatable=0;whiteSpace=wrap;html=1;" parent="jGSYFQY-Ii_sOWv5YD1a-90" vertex="1">
          <mxGeometry y="90" width="210" height="30" as="geometry" />
        </mxCell>
        <mxCell id="jGSYFQY-Ii_sOWv5YD1a-94" value="+&amp;nbsp;Word( String , String)" style="text;strokeColor=none;fillColor=none;align=left;verticalAlign=middle;spacingLeft=4;spacingRight=4;overflow=hidden;points=[[0,0.5],[1,0.5]];portConstraint=eastwest;rotatable=0;whiteSpace=wrap;html=1;" parent="jGSYFQY-Ii_sOWv5YD1a-90" vertex="1">
          <mxGeometry y="120" width="210" height="30" as="geometry" />
        </mxCell>
        <mxCell id="jGSYFQY-Ii_sOWv5YD1a-95" value="+&amp;nbsp;&amp;nbsp;Word( String , String , String)" style="text;strokeColor=none;fillColor=none;align=left;verticalAlign=middle;spacingLeft=4;spacingRight=4;overflow=hidden;points=[[0,0.5],[1,0.5]];portConstraint=eastwest;rotatable=0;whiteSpace=wrap;html=1;" parent="jGSYFQY-Ii_sOWv5YD1a-90" vertex="1">
          <mxGeometry y="150" width="210" height="30" as="geometry" />
        </mxCell>
        <mxCell id="jGSYFQY-Ii_sOWv5YD1a-96" value="+&amp;nbsp;&amp;nbsp;getWord_target() : String&amp;nbsp;" style="text;strokeColor=none;fillColor=none;align=left;verticalAlign=middle;spacingLeft=4;spacingRight=4;overflow=hidden;points=[[0,0.5],[1,0.5]];portConstraint=eastwest;rotatable=0;whiteSpace=wrap;html=1;" parent="jGSYFQY-Ii_sOWv5YD1a-90" vertex="1">
          <mxGeometry y="180" width="210" height="30" as="geometry" />
        </mxCell>
        <mxCell id="jGSYFQY-Ii_sOWv5YD1a-97" value="+&amp;nbsp;setWord_target(String ) : void" style="text;strokeColor=none;fillColor=none;align=left;verticalAlign=middle;spacingLeft=4;spacingRight=4;overflow=hidden;points=[[0,0.5],[1,0.5]];portConstraint=eastwest;rotatable=0;whiteSpace=wrap;html=1;" parent="jGSYFQY-Ii_sOWv5YD1a-90" vertex="1">
          <mxGeometry y="210" width="210" height="30" as="geometry" />
        </mxCell>
        <mxCell id="jGSYFQY-Ii_sOWv5YD1a-98" value="+&amp;nbsp;getWord_explain() : String&amp;nbsp;" style="text;strokeColor=none;fillColor=none;align=left;verticalAlign=middle;spacingLeft=4;spacingRight=4;overflow=hidden;points=[[0,0.5],[1,0.5]];portConstraint=eastwest;rotatable=0;whiteSpace=wrap;html=1;" parent="jGSYFQY-Ii_sOWv5YD1a-90" vertex="1">
          <mxGeometry y="240" width="210" height="30" as="geometry" />
        </mxCell>
        <mxCell id="jGSYFQY-Ii_sOWv5YD1a-99" value="+&amp;nbsp;&amp;nbsp;setWord_explain(String ) : void&amp;nbsp;" style="text;strokeColor=none;fillColor=none;align=left;verticalAlign=middle;spacingLeft=4;spacingRight=4;overflow=hidden;points=[[0,0.5],[1,0.5]];portConstraint=eastwest;rotatable=0;whiteSpace=wrap;html=1;" parent="jGSYFQY-Ii_sOWv5YD1a-90" vertex="1">
          <mxGeometry y="270" width="210" height="30" as="geometry" />
        </mxCell>
        <mxCell id="jGSYFQY-Ii_sOWv5YD1a-100" value="+&amp;nbsp;&amp;nbsp;getWord_pronounce() : String&amp;nbsp;" style="text;strokeColor=none;fillColor=none;align=left;verticalAlign=middle;spacingLeft=4;spacingRight=4;overflow=hidden;points=[[0,0.5],[1,0.5]];portConstraint=eastwest;rotatable=0;whiteSpace=wrap;html=1;" parent="jGSYFQY-Ii_sOWv5YD1a-90" vertex="1">
          <mxGeometry y="300" width="210" height="30" as="geometry" />
        </mxCell>
        <mxCell id="jGSYFQY-Ii_sOWv5YD1a-101" value="+&amp;nbsp;setWord_pronounce(String ) : void" style="text;strokeColor=none;fillColor=none;align=left;verticalAlign=middle;spacingLeft=4;spacingRight=4;overflow=hidden;points=[[0,0.5],[1,0.5]];portConstraint=eastwest;rotatable=0;whiteSpace=wrap;html=1;" parent="jGSYFQY-Ii_sOWv5YD1a-90" vertex="1">
          <mxGeometry y="330" width="210" height="30" as="geometry" />
        </mxCell>
        <mxCell id="jGSYFQY-Ii_sOWv5YD1a-102" value="+&amp;nbsp;compareTo(Word&amp;nbsp; ) : int&amp;nbsp;" style="text;strokeColor=none;fillColor=none;align=left;verticalAlign=middle;spacingLeft=4;spacingRight=4;overflow=hidden;points=[[0,0.5],[1,0.5]];portConstraint=eastwest;rotatable=0;whiteSpace=wrap;html=1;" parent="jGSYFQY-Ii_sOWv5YD1a-90" vertex="1">
          <mxGeometry y="360" width="210" height="30" as="geometry" />
        </mxCell>
        <mxCell id="jGSYFQY-Ii_sOWv5YD1a-104" value="" style="endArrow=none;html=1;rounded=0;exitX=-0.003;exitY=0.03;exitDx=0;exitDy=0;exitPerimeter=0;" parent="jGSYFQY-Ii_sOWv5YD1a-90" source="jGSYFQY-Ii_sOWv5YD1a-94" edge="1">
          <mxGeometry width="50" height="50" relative="1" as="geometry">
            <mxPoint x="150" y="190" as="sourcePoint" />
            <mxPoint x="210" y="121" as="targetPoint" />
          </mxGeometry>
        </mxCell>
        <mxCell id="jGSYFQY-Ii_sOWv5YD1a-105" value="ioFile" style="swimlane;fontStyle=0;childLayout=stackLayout;horizontal=1;startSize=30;horizontalStack=0;resizeParent=1;resizeParentMax=0;resizeLast=0;collapsible=1;marginBottom=0;whiteSpace=wrap;html=1;" parent="WIyWlLk6GJQsqaUBKTNV-1" vertex="1">
          <mxGeometry x="-1220" y="70" width="260" height="270" as="geometry" />
        </mxCell>
        <mxCell id="jGSYFQY-Ii_sOWv5YD1a-106" value="+&amp;nbsp;readFile(String ) :&amp;nbsp;&amp;nbsp;ArrayList&amp;lt;Word&amp;gt;" style="text;strokeColor=none;fillColor=none;align=left;verticalAlign=middle;spacingLeft=4;spacingRight=4;overflow=hidden;points=[[0,0.5],[1,0.5]];portConstraint=eastwest;rotatable=0;whiteSpace=wrap;html=1;" parent="jGSYFQY-Ii_sOWv5YD1a-105" vertex="1">
          <mxGeometry y="30" width="260" height="30" as="geometry" />
        </mxCell>
        <mxCell id="jGSYFQY-Ii_sOWv5YD1a-107" value="+&amp;nbsp;readFromFile() :&amp;nbsp;ArrayList&amp;lt;Word&amp;gt;" style="text;strokeColor=none;fillColor=none;align=left;verticalAlign=middle;spacingLeft=4;spacingRight=4;overflow=hidden;points=[[0,0.5],[1,0.5]];portConstraint=eastwest;rotatable=0;whiteSpace=wrap;html=1;" parent="jGSYFQY-Ii_sOWv5YD1a-105" vertex="1">
          <mxGeometry y="60" width="260" height="30" as="geometry" />
        </mxCell>
        <mxCell id="jGSYFQY-Ii_sOWv5YD1a-108" value="+&amp;nbsp;insert(ArrayList&amp;lt;Word&amp;gt; ,String ) : void&amp;nbsp;" style="text;strokeColor=none;fillColor=none;align=left;verticalAlign=middle;spacingLeft=4;spacingRight=4;overflow=hidden;points=[[0,0.5],[1,0.5]];portConstraint=eastwest;rotatable=0;whiteSpace=wrap;html=1;" parent="jGSYFQY-Ii_sOWv5YD1a-105" vertex="1">
          <mxGeometry y="90" width="260" height="30" as="geometry" />
        </mxCell>
        <mxCell id="jGSYFQY-Ii_sOWv5YD1a-109" value="+&amp;nbsp;insertToDictionary(ArrayList&amp;lt;Word&amp;gt;) : void&amp;nbsp;" style="text;strokeColor=none;fillColor=none;align=left;verticalAlign=middle;spacingLeft=4;spacingRight=4;overflow=hidden;points=[[0,0.5],[1,0.5]];portConstraint=eastwest;rotatable=0;whiteSpace=wrap;html=1;" parent="jGSYFQY-Ii_sOWv5YD1a-105" vertex="1">
          <mxGeometry y="120" width="260" height="30" as="geometry" />
        </mxCell>
        <mxCell id="jGSYFQY-Ii_sOWv5YD1a-110" value="+&amp;nbsp;readFileHistory() :&amp;nbsp;ArrayList&amp;lt;Word&amp;gt;&amp;nbsp;" style="text;strokeColor=none;fillColor=none;align=left;verticalAlign=middle;spacingLeft=4;spacingRight=4;overflow=hidden;points=[[0,0.5],[1,0.5]];portConstraint=eastwest;rotatable=0;whiteSpace=wrap;html=1;" parent="jGSYFQY-Ii_sOWv5YD1a-105" vertex="1">
          <mxGeometry y="150" width="260" height="30" as="geometry" />
        </mxCell>
        <mxCell id="jGSYFQY-Ii_sOWv5YD1a-111" value="+&amp;nbsp;insertToHistory(ArrayList&amp;lt;Word&amp;gt; ) : void&amp;nbsp;" style="text;strokeColor=none;fillColor=none;align=left;verticalAlign=middle;spacingLeft=4;spacingRight=4;overflow=hidden;points=[[0,0.5],[1,0.5]];portConstraint=eastwest;rotatable=0;whiteSpace=wrap;html=1;" parent="jGSYFQY-Ii_sOWv5YD1a-105" vertex="1">
          <mxGeometry y="180" width="260" height="30" as="geometry" />
        </mxCell>
        <mxCell id="jGSYFQY-Ii_sOWv5YD1a-112" value="+&amp;nbsp;&amp;nbsp;delete(String) : void&amp;nbsp;" style="text;strokeColor=none;fillColor=none;align=left;verticalAlign=middle;spacingLeft=4;spacingRight=4;overflow=hidden;points=[[0,0.5],[1,0.5]];portConstraint=eastwest;rotatable=0;whiteSpace=wrap;html=1;" parent="jGSYFQY-Ii_sOWv5YD1a-105" vertex="1">
          <mxGeometry y="210" width="260" height="30" as="geometry" />
        </mxCell>
        <mxCell id="jGSYFQY-Ii_sOWv5YD1a-113" value="+&amp;nbsp;deleteHistory() : void&amp;nbsp;" style="text;strokeColor=none;fillColor=none;align=left;verticalAlign=middle;spacingLeft=4;spacingRight=4;overflow=hidden;points=[[0,0.5],[1,0.5]];portConstraint=eastwest;rotatable=0;whiteSpace=wrap;html=1;" parent="jGSYFQY-Ii_sOWv5YD1a-105" vertex="1">
          <mxGeometry y="240" width="260" height="30" as="geometry" />
        </mxCell>
        <mxCell id="jGSYFQY-Ii_sOWv5YD1a-114" value="&amp;nbsp;main" style="swimlane;fontStyle=0;childLayout=stackLayout;horizontal=1;startSize=30;horizontalStack=0;resizeParent=1;resizeParentMax=0;resizeLast=0;collapsible=1;marginBottom=0;whiteSpace=wrap;html=1;" parent="WIyWlLk6GJQsqaUBKTNV-1" vertex="1">
          <mxGeometry x="-1804" y="1120" width="150" height="60" as="geometry" />
        </mxCell>
        <mxCell id="jGSYFQY-Ii_sOWv5YD1a-117" value="+&amp;nbsp;void main(String[] args)" style="text;strokeColor=none;fillColor=none;align=left;verticalAlign=middle;spacingLeft=4;spacingRight=4;overflow=hidden;points=[[0,0.5],[1,0.5]];portConstraint=eastwest;rotatable=0;whiteSpace=wrap;html=1;" parent="jGSYFQY-Ii_sOWv5YD1a-114" vertex="1">
          <mxGeometry y="30" width="150" height="30" as="geometry" />
        </mxCell>
        <mxCell id="KPDPt_HukclP0nCcabdX-108" value="&amp;lt;&amp;lt;interface&amp;gt;&amp;gt;&lt;br style=&quot;border-color: var(--border-color); font-size: 18px;&quot;&gt;&lt;span style=&quot;font-size: 18px;&quot;&gt;Initializable&lt;/span&gt;" style="text;html=1;align=center;verticalAlign=middle;resizable=0;points=[];autosize=1;strokeColor=none;fillColor=none;fontSize=18;" parent="WIyWlLk6GJQsqaUBKTNV-1" vertex="1">
          <mxGeometry x="349" y="650" width="130" height="60" as="geometry" />
        </mxCell>
        <mxCell id="jGSYFQY-Ii_sOWv5YD1a-126" value="" style="endArrow=diamondThin;endFill=0;endSize=24;html=1;rounded=0;exitX=1;exitY=0.5;exitDx=0;exitDy=0;" parent="WIyWlLk6GJQsqaUBKTNV-1" source="jGSYFQY-Ii_sOWv5YD1a-97" edge="1">
          <mxGeometry width="160" relative="1" as="geometry">
            <mxPoint x="-1170" y="870" as="sourcePoint" />
            <mxPoint x="-1080" y="675" as="targetPoint" />
          </mxGeometry>
        </mxCell>
        <mxCell id="jGSYFQY-Ii_sOWv5YD1a-127" value="" style="endArrow=block;dashed=1;endFill=0;endSize=12;html=1;rounded=0;entryX=0;entryY=0.5;entryDx=0;entryDy=0;exitX=1;exitY=0.25;exitDx=0;exitDy=0;" parent="WIyWlLk6GJQsqaUBKTNV-1" source="MWqNm4K_UuyTtYYoWFC4-12" target="KPDPt_HukclP0nCcabdX-107" edge="1">
          <mxGeometry width="160" relative="1" as="geometry">
            <mxPoint x="-480" y="470" as="sourcePoint" />
            <mxPoint x="-320" y="470" as="targetPoint" />
          </mxGeometry>
        </mxCell>
        <mxCell id="jGSYFQY-Ii_sOWv5YD1a-128" value="" style="endArrow=block;dashed=1;endFill=0;endSize=12;html=1;rounded=0;exitX=0;exitY=0.5;exitDx=0;exitDy=0;entryX=1;entryY=0.5;entryDx=0;entryDy=0;" parent="WIyWlLk6GJQsqaUBKTNV-1" source="KPDPt_HukclP0nCcabdX-3" target="KPDPt_HukclP0nCcabdX-107" edge="1">
          <mxGeometry width="160" relative="1" as="geometry">
            <mxPoint x="660" y="250" as="sourcePoint" />
            <mxPoint x="820" y="250" as="targetPoint" />
          </mxGeometry>
        </mxCell>
        <mxCell id="jGSYFQY-Ii_sOWv5YD1a-129" value="" style="endArrow=block;dashed=1;endFill=0;endSize=12;html=1;rounded=0;entryX=0.5;entryY=0;entryDx=0;entryDy=0;" parent="WIyWlLk6GJQsqaUBKTNV-1" target="KPDPt_HukclP0nCcabdX-107" edge="1">
          <mxGeometry width="160" relative="1" as="geometry">
            <mxPoint x="370" y="240" as="sourcePoint" />
            <mxPoint x="820" y="250" as="targetPoint" />
          </mxGeometry>
        </mxCell>
        <mxCell id="jGSYFQY-Ii_sOWv5YD1a-130" value="" style="rounded=0;whiteSpace=wrap;html=1;" parent="WIyWlLk6GJQsqaUBKTNV-1" vertex="1">
          <mxGeometry x="-350" y="1520" width="170" height="80" as="geometry" />
        </mxCell>
        <mxCell id="jGSYFQY-Ii_sOWv5YD1a-131" value="Application" style="text;html=1;strokeColor=none;fillColor=none;align=center;verticalAlign=middle;whiteSpace=wrap;rounded=0;fontSize=23;" parent="WIyWlLk6GJQsqaUBKTNV-1" vertex="1">
          <mxGeometry x="-310" y="1545" width="100" height="30" as="geometry" />
        </mxCell>
        <mxCell id="jGSYFQY-Ii_sOWv5YD1a-133" value="Extends" style="endArrow=block;endSize=16;endFill=0;html=1;rounded=0;exitX=1;exitY=0.5;exitDx=0;exitDy=0;entryX=0;entryY=0.75;entryDx=0;entryDy=0;" parent="WIyWlLk6GJQsqaUBKTNV-1" source="KPDPt_HukclP0nCcabdX-50" target="jGSYFQY-Ii_sOWv5YD1a-130" edge="1">
          <mxGeometry width="160" relative="1" as="geometry">
            <mxPoint x="-450" y="1680" as="sourcePoint" />
            <mxPoint x="-290" y="1680" as="targetPoint" />
          </mxGeometry>
        </mxCell>
        <mxCell id="jGSYFQY-Ii_sOWv5YD1a-135" value="" style="endArrow=block;dashed=1;endFill=0;endSize=12;html=1;rounded=0;exitX=1;exitY=0.5;exitDx=0;exitDy=0;entryX=0;entryY=0.75;entryDx=0;entryDy=0;" parent="WIyWlLk6GJQsqaUBKTNV-1" source="KPDPt_HukclP0nCcabdX-59" target="KPDPt_HukclP0nCcabdX-107" edge="1">
          <mxGeometry width="160" relative="1" as="geometry">
            <mxPoint x="440" y="850" as="sourcePoint" />
            <mxPoint x="600" y="850" as="targetPoint" />
          </mxGeometry>
        </mxCell>
        <mxCell id="jGSYFQY-Ii_sOWv5YD1a-137" value="" style="endArrow=block;dashed=1;endFill=0;endSize=12;html=1;rounded=0;exitX=0;exitY=0.5;exitDx=0;exitDy=0;entryX=0.75;entryY=0;entryDx=0;entryDy=0;" parent="WIyWlLk6GJQsqaUBKTNV-1" source="KPDPt_HukclP0nCcabdX-88" target="KPDPt_HukclP0nCcabdX-107" edge="1">
          <mxGeometry width="160" relative="1" as="geometry">
            <mxPoint x="320" y="430" as="sourcePoint" />
            <mxPoint x="480" y="430" as="targetPoint" />
          </mxGeometry>
        </mxCell>
        <mxCell id="jGSYFQY-Ii_sOWv5YD1a-138" value="" style="endArrow=block;dashed=1;endFill=0;endSize=12;html=1;rounded=0;exitX=1;exitY=0.5;exitDx=0;exitDy=0;" parent="WIyWlLk6GJQsqaUBKTNV-1" source="KPDPt_HukclP0nCcabdX-114" edge="1">
          <mxGeometry width="160" relative="1" as="geometry">
            <mxPoint x="320" y="430" as="sourcePoint" />
            <mxPoint x="350" y="640" as="targetPoint" />
          </mxGeometry>
        </mxCell>
        <mxCell id="jGSYFQY-Ii_sOWv5YD1a-139" value="" style="endArrow=block;dashed=1;endFill=0;endSize=12;html=1;rounded=0;exitX=0;exitY=0.5;exitDx=0;exitDy=0;entryX=1;entryY=0.75;entryDx=0;entryDy=0;" parent="WIyWlLk6GJQsqaUBKTNV-1" source="jGSYFQY-Ii_sOWv5YD1a-11" target="KPDPt_HukclP0nCcabdX-107" edge="1">
          <mxGeometry width="160" relative="1" as="geometry">
            <mxPoint x="460" y="670" as="sourcePoint" />
            <mxPoint x="620" y="670" as="targetPoint" />
          </mxGeometry>
        </mxCell>
        <mxCell id="jGSYFQY-Ii_sOWv5YD1a-140" value="" style="endArrow=diamondThin;endFill=0;endSize=24;html=1;rounded=0;exitX=0;exitY=0.5;exitDx=0;exitDy=0;entryX=1;entryY=0.5;entryDx=0;entryDy=0;" parent="WIyWlLk6GJQsqaUBKTNV-1" source="jGSYFQY-Ii_sOWv5YD1a-3" target="jGSYFQY-Ii_sOWv5YD1a-14" edge="1">
          <mxGeometry width="160" relative="1" as="geometry">
            <mxPoint x="760" y="1170" as="sourcePoint" />
            <mxPoint x="920" y="1170" as="targetPoint" />
          </mxGeometry>
        </mxCell>
        <mxCell id="jGSYFQY-Ii_sOWv5YD1a-144" value="" style="endArrow=block;dashed=1;endFill=0;endSize=12;html=1;rounded=0;exitX=0.5;exitY=0;exitDx=0;exitDy=0;entryX=0.5;entryY=1;entryDx=0;entryDy=0;" parent="WIyWlLk6GJQsqaUBKTNV-1" source="jGSYFQY-Ii_sOWv5YD1a-17" target="KPDPt_HukclP0nCcabdX-107" edge="1">
          <mxGeometry width="160" relative="1" as="geometry">
            <mxPoint x="430" y="790" as="sourcePoint" />
            <mxPoint x="590" y="790" as="targetPoint" />
          </mxGeometry>
        </mxCell>
        <mxCell id="jGSYFQY-Ii_sOWv5YD1a-148" value="" style="endArrow=diamondThin;endFill=0;endSize=24;html=1;rounded=0;exitX=0;exitY=0.5;exitDx=0;exitDy=0;entryX=1;entryY=0.5;entryDx=0;entryDy=0;" parent="WIyWlLk6GJQsqaUBKTNV-1" source="KPDPt_HukclP0nCcabdX-18" target="KPDPt_HukclP0nCcabdX-81" edge="1">
          <mxGeometry width="160" relative="1" as="geometry">
            <mxPoint x="820" y="-180" as="sourcePoint" />
            <mxPoint x="980" y="-180" as="targetPoint" />
          </mxGeometry>
        </mxCell>
        <mxCell id="jGSYFQY-Ii_sOWv5YD1a-151" value="" style="endArrow=diamondThin;endFill=1;endSize=24;html=1;rounded=0;exitX=1;exitY=0.5;exitDx=0;exitDy=0;entryX=0;entryY=0.5;entryDx=0;entryDy=0;" parent="WIyWlLk6GJQsqaUBKTNV-1" source="jGSYFQY-Ii_sOWv5YD1a-83" target="jGSYFQY-Ii_sOWv5YD1a-110" edge="1">
          <mxGeometry width="160" relative="1" as="geometry">
            <mxPoint x="-1210" y="430" as="sourcePoint" />
            <mxPoint x="-1050" y="430" as="targetPoint" />
          </mxGeometry>
        </mxCell>
        <mxCell id="jGSYFQY-Ii_sOWv5YD1a-153" value="" style="endArrow=diamondThin;endFill=1;endSize=24;html=1;rounded=0;exitX=1;exitY=0.5;exitDx=0;exitDy=0;entryX=0;entryY=0.5;entryDx=0;entryDy=0;" parent="WIyWlLk6GJQsqaUBKTNV-1" source="jGSYFQY-Ii_sOWv5YD1a-85" target="jGSYFQY-Ii_sOWv5YD1a-35" edge="1">
          <mxGeometry width="160" relative="1" as="geometry">
            <mxPoint x="-1210" y="350" as="sourcePoint" />
            <mxPoint x="-1050" y="350" as="targetPoint" />
          </mxGeometry>
        </mxCell>
        <mxCell id="jGSYFQY-Ii_sOWv5YD1a-155" value="" style="endArrow=diamondThin;endFill=1;endSize=24;html=1;rounded=0;exitX=1;exitY=0.5;exitDx=0;exitDy=0;" parent="WIyWlLk6GJQsqaUBKTNV-1" source="zkfFHV4jXpPFQw0GAbJ--3" edge="1">
          <mxGeometry width="160" relative="1" as="geometry">
            <mxPoint x="-1230" y="890" as="sourcePoint" />
            <mxPoint x="-1080" y="850" as="targetPoint" />
          </mxGeometry>
        </mxCell>
        <mxCell id="jGSYFQY-Ii_sOWv5YD1a-156" value="" style="endArrow=diamondThin;endFill=1;endSize=24;html=1;rounded=0;exitX=0;exitY=0.5;exitDx=0;exitDy=0;entryX=1.018;entryY=-0.097;entryDx=0;entryDy=0;entryPerimeter=0;" parent="WIyWlLk6GJQsqaUBKTNV-1" source="KPDPt_HukclP0nCcabdX-86" target="jGSYFQY-Ii_sOWv5YD1a-37" edge="1">
          <mxGeometry width="160" relative="1" as="geometry">
            <mxPoint x="-100" y="450" as="sourcePoint" />
            <mxPoint x="60" y="450" as="targetPoint" />
          </mxGeometry>
        </mxCell>
        <mxCell id="jGSYFQY-Ii_sOWv5YD1a-157" value="" style="endArrow=diamondThin;endFill=1;endSize=24;html=1;rounded=0;exitX=0.5;exitY=0;exitDx=0;exitDy=0;" parent="WIyWlLk6GJQsqaUBKTNV-1" source="KPDPt_HukclP0nCcabdX-80" target="KPDPt_HukclP0nCcabdX-104" edge="1">
          <mxGeometry width="160" relative="1" as="geometry">
            <mxPoint x="410" y="90" as="sourcePoint" />
            <mxPoint x="860" y="-200" as="targetPoint" />
          </mxGeometry>
        </mxCell>
        <mxCell id="jGSYFQY-Ii_sOWv5YD1a-158" value="" style="endArrow=diamondThin;endFill=1;endSize=24;html=1;rounded=0;exitX=0;exitY=0.5;exitDx=0;exitDy=0;entryX=1;entryY=0.5;entryDx=0;entryDy=0;" parent="WIyWlLk6GJQsqaUBKTNV-1" source="KPDPt_HukclP0nCcabdX-84" target="zkfFHV4jXpPFQw0GAbJ--11" edge="1">
          <mxGeometry width="160" relative="1" as="geometry">
            <mxPoint x="780" y="120" as="sourcePoint" />
            <mxPoint x="690" y="-170" as="targetPoint" />
            <Array as="points" />
          </mxGeometry>
        </mxCell>
        <mxCell id="jGSYFQY-Ii_sOWv5YD1a-160" value="" style="endArrow=diamondThin;endFill=0;endSize=24;html=1;rounded=0;exitX=0;exitY=0.5;exitDx=0;exitDy=0;entryX=1;entryY=0.5;entryDx=0;entryDy=0;" parent="WIyWlLk6GJQsqaUBKTNV-1" source="KPDPt_HukclP0nCcabdX-44" target="KPDPt_HukclP0nCcabdX-9" edge="1">
          <mxGeometry width="160" relative="1" as="geometry">
            <mxPoint x="1250" y="360" as="sourcePoint" />
            <mxPoint x="1410" y="360" as="targetPoint" />
          </mxGeometry>
        </mxCell>
        <mxCell id="jGSYFQY-Ii_sOWv5YD1a-161" value="" style="endArrow=diamondThin;endFill=1;endSize=24;html=1;rounded=0;entryX=0;entryY=0.5;entryDx=0;entryDy=0;exitX=1;exitY=0.5;exitDx=0;exitDy=0;" parent="WIyWlLk6GJQsqaUBKTNV-1" source="MWqNm4K_UuyTtYYoWFC4-30" target="jGSYFQY-Ii_sOWv5YD1a-28" edge="1">
          <mxGeometry width="160" relative="1" as="geometry">
            <mxPoint x="1250" y="360" as="sourcePoint" />
            <mxPoint x="1410" y="360" as="targetPoint" />
          </mxGeometry>
        </mxCell>
        <mxCell id="jGSYFQY-Ii_sOWv5YD1a-162" value="" style="endArrow=diamondThin;endFill=1;endSize=24;html=1;rounded=0;exitX=0;exitY=0.5;exitDx=0;exitDy=0;entryX=1;entryY=0.5;entryDx=0;entryDy=0;" parent="WIyWlLk6GJQsqaUBKTNV-1" source="KPDPt_HukclP0nCcabdX-60" target="KPDPt_HukclP0nCcabdX-77" edge="1">
          <mxGeometry width="160" relative="1" as="geometry">
            <mxPoint x="-200" y="750" as="sourcePoint" />
            <mxPoint x="-40" y="750" as="targetPoint" />
          </mxGeometry>
        </mxCell>
        <mxCell id="jGSYFQY-Ii_sOWv5YD1a-163" value="" style="endArrow=diamondThin;endFill=1;endSize=24;html=1;rounded=0;exitX=1;exitY=0.5;exitDx=0;exitDy=0;entryX=0;entryY=0.5;entryDx=0;entryDy=0;" parent="WIyWlLk6GJQsqaUBKTNV-1" source="jGSYFQY-Ii_sOWv5YD1a-79" target="jGSYFQY-Ii_sOWv5YD1a-61" edge="1">
          <mxGeometry width="160" relative="1" as="geometry">
            <mxPoint x="-820" y="660" as="sourcePoint" />
            <mxPoint x="-660" y="660" as="targetPoint" />
          </mxGeometry>
        </mxCell>
        <mxCell id="jGSYFQY-Ii_sOWv5YD1a-70" value="DictionaryManagement" style="swimlane;fontStyle=0;childLayout=stackLayout;horizontal=1;startSize=30;horizontalStack=0;resizeParent=1;resizeParentMax=0;resizeLast=0;collapsible=1;marginBottom=0;whiteSpace=wrap;html=1;" parent="WIyWlLk6GJQsqaUBKTNV-1" vertex="1">
          <mxGeometry x="-1057" y="1120" width="230" height="210" as="geometry" />
        </mxCell>
        <mxCell id="jGSYFQY-Ii_sOWv5YD1a-71" value="-&amp;nbsp;dictionary : Dictionary&amp;nbsp;" style="text;strokeColor=none;fillColor=none;align=left;verticalAlign=middle;spacingLeft=4;spacingRight=4;overflow=hidden;points=[[0,0.5],[1,0.5]];portConstraint=eastwest;rotatable=0;whiteSpace=wrap;html=1;" parent="jGSYFQY-Ii_sOWv5YD1a-70" vertex="1">
          <mxGeometry y="30" width="230" height="30" as="geometry" />
        </mxCell>
        <mxCell id="jGSYFQY-Ii_sOWv5YD1a-72" value="- words :&amp;nbsp;ArrayList&amp;lt;Word&amp;gt;" style="text;strokeColor=none;fillColor=none;align=left;verticalAlign=middle;spacingLeft=4;spacingRight=4;overflow=hidden;points=[[0,0.5],[1,0.5]];portConstraint=eastwest;rotatable=0;whiteSpace=wrap;html=1;" parent="jGSYFQY-Ii_sOWv5YD1a-70" vertex="1">
          <mxGeometry y="60" width="230" height="30" as="geometry" />
        </mxCell>
        <mxCell id="jGSYFQY-Ii_sOWv5YD1a-73" value="+&amp;nbsp;insertFromCommandLine()&amp;nbsp; : void&amp;nbsp;" style="text;strokeColor=none;fillColor=none;align=left;verticalAlign=middle;spacingLeft=4;spacingRight=4;overflow=hidden;points=[[0,0.5],[1,0.5]];portConstraint=eastwest;rotatable=0;whiteSpace=wrap;html=1;" parent="jGSYFQY-Ii_sOWv5YD1a-70" vertex="1">
          <mxGeometry y="90" width="230" height="30" as="geometry" />
        </mxCell>
        <mxCell id="jGSYFQY-Ii_sOWv5YD1a-74" value="+&amp;nbsp;dictionaryLookup() : void&amp;nbsp;" style="text;strokeColor=none;fillColor=none;align=left;verticalAlign=middle;spacingLeft=4;spacingRight=4;overflow=hidden;points=[[0,0.5],[1,0.5]];portConstraint=eastwest;rotatable=0;whiteSpace=wrap;html=1;" parent="jGSYFQY-Ii_sOWv5YD1a-70" vertex="1">
          <mxGeometry y="120" width="230" height="30" as="geometry" />
        </mxCell>
        <mxCell id="jGSYFQY-Ii_sOWv5YD1a-75" value="+&amp;nbsp;setWords(ArrayList&amp;lt;Word&amp;gt; ) : void&amp;nbsp;" style="text;strokeColor=none;fillColor=none;align=left;verticalAlign=middle;spacingLeft=4;spacingRight=4;overflow=hidden;points=[[0,0.5],[1,0.5]];portConstraint=eastwest;rotatable=0;whiteSpace=wrap;html=1;" parent="jGSYFQY-Ii_sOWv5YD1a-70" vertex="1">
          <mxGeometry y="150" width="230" height="30" as="geometry" />
        </mxCell>
        <mxCell id="jGSYFQY-Ii_sOWv5YD1a-76" value="+&amp;nbsp;setDictionary(Dictionary ) : void&amp;nbsp;" style="text;strokeColor=none;fillColor=none;align=left;verticalAlign=middle;spacingLeft=4;spacingRight=4;overflow=hidden;points=[[0,0.5],[1,0.5]];portConstraint=eastwest;rotatable=0;whiteSpace=wrap;html=1;" parent="jGSYFQY-Ii_sOWv5YD1a-70" vertex="1">
          <mxGeometry y="180" width="230" height="30" as="geometry" />
        </mxCell>
        <mxCell id="jGSYFQY-Ii_sOWv5YD1a-164" value="" style="endArrow=diamondThin;endFill=1;endSize=24;html=1;rounded=0;exitX=0.5;exitY=0;exitDx=0;exitDy=0;entryX=0.506;entryY=1.119;entryDx=0;entryDy=0;entryPerimeter=0;" parent="WIyWlLk6GJQsqaUBKTNV-1" source="jGSYFQY-Ii_sOWv5YD1a-70" target="jGSYFQY-Ii_sOWv5YD1a-56" edge="1">
          <mxGeometry width="160" relative="1" as="geometry">
            <mxPoint x="-500" y="1260" as="sourcePoint" />
            <mxPoint x="-340" y="1260" as="targetPoint" />
          </mxGeometry>
        </mxCell>
        <mxCell id="jGSYFQY-Ii_sOWv5YD1a-166" value="" style="endArrow=diamondThin;endFill=1;endSize=24;html=1;rounded=0;entryX=0.5;entryY=0;entryDx=0;entryDy=0;exitX=0.495;exitY=1.143;exitDx=0;exitDy=0;exitPerimeter=0;" parent="WIyWlLk6GJQsqaUBKTNV-1" source="jGSYFQY-Ii_sOWv5YD1a-113" target="jGSYFQY-Ii_sOWv5YD1a-33" edge="1">
          <mxGeometry width="160" relative="1" as="geometry">
            <mxPoint x="-1070" y="349" as="sourcePoint" />
            <mxPoint x="-340" y="450" as="targetPoint" />
          </mxGeometry>
        </mxCell>
        <mxCell id="jGSYFQY-Ii_sOWv5YD1a-167" value="" style="endArrow=diamondThin;endFill=1;endSize=24;html=1;rounded=0;exitX=0;exitY=0.5;exitDx=0;exitDy=0;entryX=1;entryY=0.5;entryDx=0;entryDy=0;" parent="WIyWlLk6GJQsqaUBKTNV-1" source="zkfFHV4jXpPFQw0GAbJ--20" target="zkfFHV4jXpPFQw0GAbJ--7" edge="1">
          <mxGeometry width="160" relative="1" as="geometry">
            <mxPoint x="770" y="260" as="sourcePoint" />
            <mxPoint x="930" y="260" as="targetPoint" />
          </mxGeometry>
        </mxCell>
        <mxCell id="rKb9SOVA_H6KTL9AUwge-0" value="" style="rounded=0;whiteSpace=wrap;html=1;" vertex="1" parent="WIyWlLk6GJQsqaUBKTNV-1">
          <mxGeometry x="1020" y="-700" width="240" height="60" as="geometry" />
        </mxCell>
        <mxCell id="rKb9SOVA_H6KTL9AUwge-1" value="&lt;span style=&quot;font-size: 22px;&quot;&gt;Thread&lt;/span&gt;" style="text;html=1;strokeColor=none;fillColor=none;align=center;verticalAlign=middle;whiteSpace=wrap;rounded=0;" vertex="1" parent="WIyWlLk6GJQsqaUBKTNV-1">
          <mxGeometry x="1090" y="-692.5" width="100" height="45" as="geometry" />
        </mxCell>
        <mxCell id="rKb9SOVA_H6KTL9AUwge-2" value="Extends" style="endArrow=block;endSize=16;endFill=0;html=1;rounded=0;edgeStyle=orthogonalEdgeStyle;entryX=0.25;entryY=1;entryDx=0;entryDy=0;exitX=0.75;exitY=0;exitDx=0;exitDy=0;" edge="1" parent="WIyWlLk6GJQsqaUBKTNV-1" source="KPDPt_HukclP0nCcabdX-98" target="rKb9SOVA_H6KTL9AUwge-0">
          <mxGeometry width="160" relative="1" as="geometry">
            <mxPoint x="870" y="-330" as="sourcePoint" />
            <mxPoint x="1030" y="-330" as="targetPoint" />
          </mxGeometry>
        </mxCell>
      </root>
    </mxGraphModel>
  </diagram>
</mxfile>
